<?xml version="1.0" standalone="no"?>
<!DOCTYPE svg PUBLIC "-//W3C//DTD SVG 20010904//EN"
 "http://www.w3.org/TR/2001/REC-SVG-20010904/DTD/svg10.dtd">
<svg version="1.0" xmlns="http://www.w3.org/2000/svg"
 width="600.000000pt" height="600.000000pt" viewBox="0 0 600.000000 600.000000"
 preserveAspectRatio="xMidYMid meet">

<g transform="translate(0.000000,600.000000) scale(0.100000,-0.100000)"
fill="#000000" stroke="none">
<path d="M2775 5919 c-488 -37 -975 -204 -1388 -476 -307 -202 -618 -513 -825
-823 -687 -1033 -647 -2391 99 -3380 743 -984 2011 -1399 3189 -1044 1025 310
1810 1173 2020 2224 44 221 55 334 55 580 0 246 -11 359 -55 580 -217 1088
-1051 1972 -2123 2250 -327 85 -642 114 -972 89z m621 -83 c331 -50 572 -125
869 -271 298 -146 549 -328 785 -571 229 -236 369 -433 515 -729 196 -396 282
-746 292 -1192 6 -233 -3 -376 -33 -553 -203 -1196 -1147 -2140 -2344 -2344
-245 -42 -663 -47 -890 -11 -541 84 -1044 312 -1440 651 -301 257 -544 569
-715 919 -149 304 -229 564 -277 905 -17 126 -18 593 0 715 78 542 267 994
592 1415 94 122 358 386 480 480 315 243 670 420 1032 515 145 37 315 70 448
84 125 14 565 6 686 -13z"/>
<path d="M2794 5800 c-485 -38 -966 -205 -1359 -470 -281 -190 -575 -484 -765
-765 -221 -327 -375 -719 -440 -1116 -15 -95 -39 -341 -40 -412 0 -4 100 -6
222 -5 l223 3 7 117 c56 949 696 1781 1608 2089 63 21 109 39 103 39 -7 0 -13
7 -13 15 0 8 7 15 15 15 8 0 15 5 15 10 0 6 -7 10 -15 10 -8 0 -15 7 -15 15 0
9 -9 15 -22 15 -56 0 -118 69 -118 131 0 86 108 152 195 119 25 -9 25 -11 10
-34 -14 -20 -22 -23 -54 -19 -70 10 -105 -54 -60 -111 25 -32 57 -33 93 -5 23
18 31 20 52 10 21 -9 23 -14 14 -32 -7 -11 -25 -28 -41 -37 -34 -20 -36 -28
-9 -35 25 -7 25 -21 0 -45 -19 -17 -14 -17 81 4 242 55 573 70 816 39 684 -89
1287 -462 1668 -1031 232 -347 371 -754 393 -1159 l7 -120 224 -3 223 -2 -6
102 c-35 542 -185 995 -471 1423 -453 681 -1173 1127 -1985 1229 -150 19 -416
27 -556 16z m-30 -131 c3 -17 6 -48 6 -68 l0 -36 33 37 c24 27 41 37 70 40 20
2 37 2 37 0 0 -2 -16 -22 -35 -45 l-35 -41 45 -46 c25 -25 45 -49 45 -53 0 -4
-17 -7 -38 -7 -29 0 -45 7 -67 30 -32 34 -45 31 -45 -11 0 -26 -3 -29 -34 -29
l-34 0 -7 113 c-3 61 -9 120 -11 130 -4 14 1 17 29 17 31 0 35 -4 41 -31z
m450 22 c108 -26 137 -152 50 -220 -25 -19 -37 -21 -118 -19 l-91 3 3 65 c1
36 5 91 8 123 l6 57 51 0 c29 0 69 -5 91 -9z m486 -73 c15 -18 22 -21 37 -12
10 5 26 8 36 6 18 -4 18 -5 1 -23 -33 -37 -124 -10 -124 36 0 23 29 18 50 -7z
m-1059 -36 c57 -51 36 -140 -40 -163 -75 -22 -141 19 -141 88 1 92 111 137
181 75z m863 7 c32 -25 49 -64 40 -91 -5 -18 -12 -19 -52 -13 -26 3 -58 9 -72
12 l-25 6 20 -22 c12 -14 28 -21 45 -19 50 5 72 -36 25 -48 -72 -18 -145 31
-145 98 0 83 98 129 164 77z m204 -41 c7 -7 29 -13 48 -15 20 -1 38 -4 41 -7
6 -6 -36 -154 -53 -187 -26 -52 -104 -60 -173 -18 -35 21 -38 31 -15 50 13 10
20 10 44 -4 35 -21 76 -22 84 -2 4 12 -3 15 -29 15 -52 0 -90 37 -90 90 0 34
6 47 28 66 31 26 94 33 115 12z m252 -83 c35 -18 50 -43 50 -82 0 -52 -10 -56
-76 -29 -38 16 -60 20 -63 14 -5 -15 28 -38 55 -38 20 0 34 -17 34 -41 0 -15
-59 -10 -96 7 -44 21 -68 65 -60 110 13 64 89 94 156 59z m-1908 -38 c11 -12
30 -47 43 -77 l23 -55 -21 -12 c-35 -20 -41 -16 -66 42 -24 57 -47 69 -71 40
-10 -12 -8 -25 10 -70 12 -31 21 -57 19 -58 -2 -2 -16 -8 -31 -14 -26 -12 -26
-11 -63 74 -38 89 -38 102 7 107 14 1 38 12 53 24 36 28 71 28 97 -1z m2101
-47 c7 0 18 -4 26 -9 20 -13 -4 -53 -32 -51 -42 4 -48 0 -69 -50 -22 -53 -29
-57 -65 -37 l-22 12 41 88 41 87 34 -20 c19 -11 40 -20 46 -20z m-2356 7 c10
-21 6 -25 -43 -52 -58 -31 -60 -35 -42 -53 9 -9 22 -6 56 15 43 25 46 25 59 7
19 -26 18 -27 -32 -54 -25 -14 -45 -30 -45 -37 0 -26 25 -25 77 3 46 25 55 27
63 14 15 -23 12 -36 -12 -48 -13 -6 -51 -27 -85 -46 l-62 -35 -59 109 -60 110
81 45 c45 24 85 45 88 45 3 0 11 -10 16 -23z m2571 -55 l23 -18 -15 -80 c-8
-43 -13 -80 -11 -82 1 -2 32 18 69 43 66 47 90 51 115 21 8 -9 -15 -29 -96
-85 l-106 -73 -32 15 -32 15 13 84 c7 46 17 104 20 131 7 51 16 56 52 29z
m-2824 -203 c14 -11 26 -24 26 -29 0 -5 -23 -25 -50 -45 -50 -37 -59 -58 -19
-48 11 3 27 16 35 28 10 15 21 21 34 18 30 -8 24 -38 -15 -72 -49 -43 -104
-43 -146 -2 -42 42 -40 92 5 137 41 41 89 46 130 13z m3082 -43 c39 -39 45
-81 16 -117 l-19 -22 -54 41 c-30 23 -56 37 -58 31 -4 -13 27 -47 50 -54 25
-8 26 -55 2 -55 -30 0 -81 37 -98 71 -35 68 10 139 87 139 32 0 47 -7 74 -34z
m-3250 -127 c30 -29 54 -57 54 -64 0 -7 -9 -20 -21 -31 -20 -18 -21 -18 -64
29 -48 50 -54 54 -73 35 -19 -19 -14 -37 25 -84 l36 -45 -21 -22 -22 -21 -36
34 c-20 19 -50 52 -67 74 l-30 38 23 18 c14 10 28 16 32 14 4 -3 8 1 8 10 0
20 57 66 81 66 11 0 45 -23 75 -51z m3386 14 c14 -16 34 -33 44 -39 18 -11 18
-12 1 -32 -16 -17 -22 -18 -47 -9 -28 11 -33 8 -73 -31 l-43 -42 -22 23 -23
24 58 66 c32 36 63 66 69 66 6 1 22 -11 36 -26z m-3674 -89 c2 -11 -4 -26 -12
-33 -31 -26 -71 14 -45 45 17 21 53 14 57 -12z m3800 -34 c18 -11 40 -36 48
-55 12 -30 12 -40 0 -69 -22 -54 -35 -54 -81 0 -43 49 -63 55 -50 14 4 -12 18
-25 31 -30 24 -10 33 -43 14 -55 -16 -10 -70 24 -90 58 -33 53 -22 109 28 140
36 22 60 21 100 -3z m-3695 -58 l68 -68 -26 -24 -26 -24 -66 66 -66 66 19 26
c11 14 21 26 24 26 3 0 36 -31 73 -68z m-128 -42 c4 -14 -1 -27 -21 -43 -40
-35 -27 -54 16 -22 41 30 71 32 95 5 22 -24 15 -57 -21 -99 -39 -47 -64 -58
-80 -36 -12 16 -9 22 24 51 45 39 37 56 -11 20 -39 -30 -63 -33 -89 -9 -22 20
-23 45 -3 83 14 28 60 70 76 70 4 0 10 -9 14 -20z m3969 -55 c9 -14 15 -25 12
-25 -2 0 11 -15 30 -34 54 -54 47 -86 -32 -147 l-55 -42 -22 22 -22 22 49 43
c33 29 47 49 44 62 -6 33 -45 29 -93 -10 l-44 -36 -20 28 -20 28 72 57 c40 31
75 57 78 57 4 0 14 -11 23 -25z m-4157 -51 c8 -22 -10 -49 -32 -49 -10 0 -22
7 -28 16 -15 24 -1 49 28 49 15 0 28 -7 32 -16z m183 -141 c0 -3 -9 -16 -19
-29 l-19 -24 -73 57 c-41 31 -76 58 -78 60 -3 2 6 14 18 27 l23 25 74 -56 c41
-30 74 -58 74 -60z m-170 -12 c0 -20 -6 -30 -19 -34 -31 -8 -43 -40 -25 -65
26 -37 74 -22 74 23 0 22 35 49 50 40 6 -4 10 -22 10 -42 0 -53 -53 -103 -109
-103 -31 0 -48 6 -66 25 -48 47 -25 149 39 175 37 15 46 11 46 -19z m4409 -67
c13 -30 14 -30 -36 -59 l-37 -23 35 -7 c88 -18 105 -25 122 -55 21 -35 19 -36
-66 -15 l-58 13 -25 -56 c-13 -31 -27 -66 -30 -79 -7 -27 -19 -22 -39 17 -14
27 -13 34 5 80 18 46 18 51 4 57 -9 3 -29 -1 -44 -10 -27 -16 -28 -16 -44 8
-9 13 -16 28 -16 32 0 9 189 122 206 122 6 1 16 -11 23 -25z m-4479 -144 c33
-17 60 -33 60 -36 0 -5 -19 -45 -25 -52 -2 -2 -28 9 -59 25 -52 25 -57 26 -72
11 -24 -24 -12 -42 45 -75 28 -15 51 -30 51 -33 0 -3 -9 -16 -18 -28 l-18 -24
-82 44 c-45 23 -82 47 -82 51 0 4 10 18 23 31 12 13 23 34 25 47 4 32 40 69
69 69 13 0 50 -14 83 -30z m4558 -115 c7 -14 12 -28 12 -31 0 -2 -25 -15 -56
-29 -46 -21 -55 -28 -52 -47 4 -31 36 -34 93 -9 l45 20 15 -30 15 -29 -86 -40
c-48 -22 -88 -39 -89 -38 -12 15 -25 50 -21 57 3 5 -3 16 -14 26 -25 22 -34
68 -20 95 9 18 119 80 141 80 3 0 11 -11 17 -25z m-4689 -84 c13 -8 11 -19
-11 -70 -18 -41 -22 -61 -14 -61 20 0 36 23 36 52 0 15 4 28 9 28 5 0 16 3 24
6 34 13 20 -84 -18 -126 -25 -28 -76 -35 -113 -16 -39 20 -52 44 -52 91 0 69
87 128 139 96z m4789 -150 c6 -16 8 -32 5 -35 -4 -3 2 -15 11 -25 20 -22 16
-36 -14 -44 -13 -3 -24 1 -30 14 -13 23 -43 24 -99 4 -41 -14 -42 -14 -51 11
-6 14 -10 29 -10 33 0 5 147 66 172 70 3 0 11 -12 16 -28z m-4931 -39 c6 -4
13 -21 15 -37 3 -26 10 -32 56 -49 53 -19 61 -31 42 -66 -10 -18 -14 -17 -99
11 l-90 30 11 30 c5 16 14 29 20 29 6 0 8 7 4 15 -12 33 12 55 41 37z m4985
-112 c0 -11 1 -25 2 -31 1 -6 -24 -19 -54 -28 -43 -13 -56 -22 -58 -39 -5 -30
20 -37 81 -23 55 12 63 9 69 -28 3 -22 -3 -26 -86 -48 -48 -13 -90 -22 -93
-19 -3 3 -6 19 -8 35 -1 17 -7 37 -13 44 -7 8 -15 27 -18 43 -8 42 22 75 88
96 73 22 88 22 90 -2z m-4987 -71 c99 -23 119 -33 134 -66 16 -35 13 -72 -9
-120 -19 -43 -36 -53 -57 -32 -9 9 -7 21 8 48 24 45 24 54 0 75 -18 17 -19 16
-18 -18 2 -70 -55 -110 -129 -92 -43 11 -67 85 -42 129 7 12 13 29 14 37 1 8
2 25 3 38 0 12 3 22 5 22 3 0 44 -9 91 -21z m-147 -11 c30 -30 1 -118 -39
-118 -25 0 -24 16 1 37 21 18 26 48 10 58 -10 6 -3 35 9 35 4 0 12 -5 19 -12z
m5198 -188 c0 -19 6 -48 13 -65 9 -21 9 -36 2 -53 -9 -18 -8 -28 4 -45 24 -34
20 -94 -9 -112 -21 -14 -144 -41 -151 -33 -2 2 -5 17 -7 33 -3 29 -2 30 57 40
54 10 60 13 60 35 0 24 -2 25 -67 23 -66 -2 -68 -2 -68 22 0 14 -1 28 -2 33
-1 4 23 11 53 16 67 10 82 21 68 48 -10 18 -17 19 -75 13 -64 -7 -64 -7 -64
19 0 14 -1 29 -2 34 -3 7 133 31 167 28 16 -1 20 -8 21 -36z m-5102 -44 c52
-22 76 -60 76 -121 0 -68 -30 -115 -86 -134 -52 -18 -88 -9 -131 34 -29 29
-33 39 -33 87 0 65 26 113 73 133 41 18 60 18 101 1z m-194 -52 c11 -12 10
-18 -3 -32 -16 -15 -18 -15 -34 0 -13 14 -14 20 -3 32 7 9 16 16 20 16 4 0 13
-7 20 -16z m-5 -89 c0 -22 -31 -33 -47 -17 -17 17 -1 44 24 40 15 -2 23 -10
23 -23z"/>
<path d="M3137 5633 c-4 -3 -7 -32 -7 -64 0 -53 2 -59 23 -64 33 -9 76 11 87
40 12 31 -1 70 -29 84 -22 12 -64 15 -74 4z"/>
<path d="M2541 5546 c-7 -8 -11 -27 -9 -43 2 -23 8 -28 32 -28 40 0 54 26 33
59 -19 29 -39 33 -56 12z"/>
<path d="M3417 5554 c-14 -15 -6 -22 28 -26 28 -3 35 -1 33 11 -3 17 -48 27
-61 15z"/>
<path d="M3646 5494 c-31 -30 -8 -69 36 -62 30 4 38 46 12 65 -23 17 -29 16
-48 -3z"/>
<path d="M3886 5421 c-6 -9 53 -35 61 -27 2 2 1 11 -3 20 -6 17 -49 22 -58 7z"/>
<path d="M1452 5088 c-7 -7 -12 -20 -12 -30 0 -17 2 -17 30 3 28 22 31 39 6
39 -6 0 -17 -5 -24 -12z"/>
<path d="M4540 5062 c0 -5 14 -18 30 -30 28 -21 30 -21 30 -4 0 10 -5 23 -12
30 -14 14 -48 16 -48 4z"/>
<path d="M4856 4779 c23 -24 30 -27 32 -14 5 22 -16 45 -41 45 -19 0 -18 -2 9
-31z"/>
<path d="M612 4018 c-14 -14 -16 -44 -4 -52 5 -3 16 10 25 29 13 27 14 35 4
35 -7 0 -18 -5 -25 -12z"/>
<path d="M498 3639 c-32 -18 -17 -79 19 -79 7 0 20 11 29 25 16 24 16 27 -1
45 -21 23 -23 23 -47 9z"/>
<path d="M412 3400 c-53 -22 -46 -104 11 -123 80 -26 130 80 56 118 -32 17
-35 17 -67 5z"/>
<path d="M2823 5299 c-743 -57 -1412 -471 -1800 -1114 -78 -129 -110 -194
-166 -335 -153 -382 -200 -829 -131 -1235 142 -840 742 -1538 1549 -1804 835
-275 1736 -62 2356 558 620 620 833 1521 558 2356 -266 808 -962 1405 -1804
1549 -100 17 -332 37 -410 35 -27 -1 -96 -5 -152 -10z m477 -65 c771 -96 1466
-622 1773 -1345 125 -293 180 -565 180 -889 0 -267 -31 -461 -114 -714 -219
-669 -756 -1206 -1425 -1425 -253 -83 -447 -114 -714 -114 -251 0 -451 30
-672 100 -738 233 -1300 817 -1504 1561 -95 347 -102 757 -18 1111 92 393 293
757 578 1050 195 199 382 334 631 456 407 199 819 266 1285 209z"/>
<path d="M2785 5164 c-95 -11 -278 -47 -378 -75 -491 -138 -928 -457 -1214
-886 -71 -107 -177 -302 -201 -371 -10 -30 -10 -32 13 -32 21 0 31 13 69 94
311 667 943 1125 1676 1216 46 5 159 10 250 10 258 0 436 -28 674 -107 540
-179 989 -574 1237 -1088 53 -108 64 -125 85 -125 13 0 24 3 24 7 0 23 -149
303 -207 390 -342 511 -846 837 -1463 948 -92 17 -469 29 -565 19z"/>
<path d="M3450 4110 c0 -16 -9 -53 -20 -82 -11 -29 -20 -74 -20 -100 l0 -48
50 0 50 0 -1 48 c-1 26 -10 71 -21 101 -10 30 -18 67 -18 83 0 15 -4 28 -10
28 -5 0 -10 -13 -10 -30z m10 -210 c0 -5 -9 -10 -20 -10 -11 0 -20 5 -20 10 0
6 9 10 20 10 11 0 20 -4 20 -10z"/>
<path d="M3377 3841 c-29 -49 -25 -51 83 -51 55 0 100 2 100 5 0 2 -8 20 -17
40 -17 35 -17 35 -83 35 -62 0 -67 -2 -83 -29z"/>
<path d="M3403 3773 c31 -2 83 -2 115 0 31 2 5 3 -58 3 -63 0 -89 -1 -57 -3z"/>
<path d="M3351 3738 l-1 -28 110 0 110 0 -1 28 c-2 23 -2 24 -6 5 -4 -22 -9
-23 -103 -23 -94 0 -99 1 -103 23 -4 19 -4 18 -6 -5z"/>
<path d="M3387 3744 c5 -13 7 -13 14 -2 7 10 9 10 9 -2 0 -13 1 -13 10 0 5 8
10 10 10 4 0 -17 98 -15 104 2 4 11 -11 14 -74 14 -68 0 -79 -2 -73 -16z"/>
<path d="M3333 3693 c9 -2 23 -2 30 0 6 3 -1 5 -18 5 -16 0 -22 -2 -12 -5z"/>
<path d="M3380 3630 l0 -70 75 0 75 0 0 70 0 70 -75 0 -75 0 0 -70z m114 34
c26 -26 13 -86 -14 -69 -9 5 -11 4 -6 -3 5 -8 0 -12 -13 -12 -12 0 -21 5 -21
11 0 5 -4 7 -10 4 -13 -8 -24 40 -13 60 9 15 11 15 23 0 12 -14 12 -18 -1 -26
-11 -7 -11 -9 4 -9 18 0 24 25 7 35 -17 10 -11 25 9 25 11 0 27 -7 35 -16z"/>
<path d="M3563 3693 c9 -2 23 -2 30 0 6 3 -1 5 -18 5 -16 0 -22 -2 -12 -5z"/>
<path d="M3330 3615 c0 -44 3 -51 20 -51 17 0 20 7 20 51 0 44 -3 51 -20 51
-17 0 -20 -7 -20 -51z"/>
<path d="M3550 3615 c0 -44 3 -51 20 -51 17 0 20 7 20 51 0 44 -3 51 -20 51
-17 0 -20 -7 -20 -51z"/>
<path d="M1280 3397 c0 -216 0 -218 21 -215 20 3 21 8 20 161 -1 86 2 157 6
157 4 0 83 -75 175 -167 l168 -168 0 218 0 217 -25 0 -25 0 0 -162 0 -163
-170 170 -170 170 0 -218z"/>
<path d="M1890 3601 c-126 -41 -190 -151 -155 -267 27 -91 116 -154 217 -154
114 1 208 82 208 181 l0 29 -90 0 c-83 0 -90 -1 -90 -20 0 -18 7 -20 65 -20
73 0 77 -5 45 -58 -23 -38 -88 -71 -139 -72 -110 0 -203 117 -171 217 41 126
195 169 294 83 29 -26 35 -28 52 -16 16 12 16 16 4 30 -7 10 -33 29 -57 43
-46 27 -138 39 -183 24z"/>
<path d="M2613 3591 c-38 -24 -53 -49 -53 -89 0 -44 34 -79 115 -116 79 -36
94 -58 81 -111 -7 -27 -52 -55 -88 -55 -30 0 -67 26 -78 55 -7 17 -14 22 -29
18 -26 -7 -27 -27 -1 -63 27 -38 70 -54 132 -48 44 5 57 11 85 42 24 26 33 45
33 71 0 62 -21 87 -109 130 -62 30 -83 45 -88 64 -7 29 6 52 39 69 29 14 74 3
94 -23 9 -13 13 -13 30 0 18 13 18 15 -8 41 -36 36 -109 44 -155 15z"/>
<path d="M970 3390 l0 -210 115 0 115 0 0 25 c0 25 -1 25 -90 25 l-90 0 0 80
0 79 87 3 c73 3 88 6 91 20 3 15 -8 18 -85 20 l-88 3 -3 63 -3 62 91 0 c83 0
90 1 90 20 0 19 -7 20 -115 20 l-115 0 0 -210z"/>
<path d="M2220 3390 l0 -210 85 0 c84 0 85 0 85 25 0 24 -3 25 -60 25 l-60 0
0 185 0 185 -25 0 -25 0 0 -210z"/>
<path d="M2430 3389 l0 -210 23 3 c22 3 22 4 25 211 l2 207 -25 0 -25 0 0
-211z"/>
<path d="M2872 3393 c3 -207 3 -208 26 -211 22 -3 22 -2 22 102 l0 106 115 0
115 0 0 -105 0 -105 25 0 25 0 0 210 0 210 -25 0 c-25 0 -25 -1 -25 -85 l0
-85 -115 0 -115 0 0 85 c0 84 0 85 -25 85 l-25 0 2 -207z"/>
<path d="M3690 3555 l0 -45 50 0 50 0 0 -165 0 -165 55 0 55 0 0 165 0 165 50
0 50 0 0 45 0 45 -155 0 -155 0 0 -45z"/>
<path d="M4030 3390 l0 -210 55 0 55 0 0 210 0 210 -55 0 -55 0 0 -210z"/>
<path d="M4221 3418 c-18 -101 -35 -195 -38 -210 -5 -28 -5 -28 50 -28 64 0
60 -6 78 120 6 47 15 92 18 101 4 11 23 -25 55 -102 67 -161 75 -161 146 1 28
66 53 120 55 120 1 0 8 -44 15 -97 18 -152 13 -143 77 -143 l56 0 -7 43 c-3
23 -18 118 -33 210 l-27 168 -59 -3 -59 -3 -40 -95 c-21 -52 -43 -99 -47 -103
-5 -5 -27 39 -51 97 l-42 106 -58 0 -57 0 -32 -182z"/>
<path d="M4770 3390 l0 -210 125 0 125 0 0 50 0 50 -71 0 -70 0 3 33 c3 32 3
32 66 35 l62 3 0 44 0 44 -62 3 c-63 3 -63 3 -63 33 l0 30 68 3 67 3 0 44 0
45 -125 0 -125 0 0 -210z"/>
<path d="M3348 3543 c18 -2 32 -10 32 -17 0 -8 -15 -21 -32 -30 -32 -15 -28
-16 106 -16 125 0 138 2 120 15 -10 8 -24 15 -31 15 -26 0 0 29 30 33 18 2
-33 4 -113 4 -80 0 -130 -2 -112 -4z m82 -18 c0 -8 -9 -15 -20 -15 -13 0 -18
5 -14 15 4 8 12 15 20 15 8 0 14 -7 14 -15z m48 -2 c2 -8 -5 -13 -17 -13 -12
0 -21 6 -21 16 0 18 31 15 38 -3z m42 2 c0 -8 -7 -15 -15 -15 -8 0 -15 7 -15
15 0 8 7 15 15 15 8 0 15 -7 15 -15z"/>
<path d="M3331 3514 c0 -11 3 -14 6 -6 3 7 2 16 -1 19 -3 4 -6 -2 -5 -13z"/>
<path d="M3581 3514 c0 -11 3 -14 6 -6 3 7 2 16 -1 19 -3 4 -6 -2 -5 -13z"/>
<path d="M3330 3318 l5 -153 3 148 3 147 119 0 119 0 3 -147 3 -148 5 153 5
152 -135 0 -135 0 5 -152z"/>
<path d="M3350 3385 c0 -38 3 -45 20 -45 27 0 25 -18 -2 -23 -13 -2 29 -4 92
-4 63 0 103 2 88 4 -25 4 -27 8 -31 61 l-3 57 -4 -60 -3 -60 -7 60 -7 60 -1
-57 c-2 -57 -2 -58 -32 -58 -30 0 -30 1 -32 58 l-1 57 -7 -60 -7 -60 -1 58
c-2 56 -2 57 -32 57 -29 0 -30 -2 -30 -45z"/>
<path d="M3440 3385 c0 -38 3 -45 20 -45 17 0 20 7 20 45 0 38 -3 45 -20 45
-17 0 -20 -7 -20 -45z"/>
<path d="M3530 3385 c0 -38 3 -45 20 -45 17 0 20 7 20 45 0 38 -3 45 -20 45
-17 0 -20 -7 -20 -45z"/>
<path d="M3408 3293 c28 -2 76 -2 105 0 28 2 5 3 -53 3 -58 0 -81 -1 -52 -3z"/>
<path d="M3350 3236 c0 -39 2 -44 20 -39 11 3 20 1 20 -5 0 -6 -10 -13 -22
-15 -13 -2 29 -4 92 -4 63 0 103 2 88 4 -25 4 -27 9 -31 56 l-3 52 -4 -55 -3
-55 -7 55 -7 55 -1 -52 c-2 -52 -3 -53 -32 -53 -29 0 -30 1 -32 53 l-1 52 -7
-55 -7 -55 -1 53 c-2 51 -3 52 -32 52 -29 0 -30 -2 -30 -44z"/>
<path d="M3440 3236 c0 -39 2 -44 20 -39 16 4 20 14 20 44 0 32 -3 39 -20 39
-17 0 -20 -7 -20 -44z"/>
<path d="M3530 3241 c0 -30 4 -40 20 -44 18 -5 20 0 20 39 0 37 -3 44 -20 44
-17 0 -20 -7 -20 -39z"/>
<path d="M1100 3100 c0 -5 5 -10 10 -10 6 0 10 5 10 10 0 6 -4 10 -10 10 -5 0
-10 -4 -10 -10z"/>
<path d="M3215 3100 c3 -5 15 -10 25 -10 10 0 22 5 25 10 4 6 -7 10 -25 10
-18 0 -29 -4 -25 -10z"/>
<path d="M3320 3100 c0 -5 5 -10 10 -10 6 0 10 5 10 10 0 6 -4 10 -10 10 -5 0
-10 -4 -10 -10z"/>
<path d="M3480 3100 c0 -5 5 -10 10 -10 6 0 10 5 10 10 0 6 -4 10 -10 10 -5 0
-10 -4 -10 -10z"/>
<path d="M4905 3100 c3 -5 15 -10 25 -10 10 0 22 5 25 10 4 6 -7 10 -25 10
-18 0 -29 -4 -25 -10z"/>
<path d="M970 2991 l0 -91 38 0 c52 0 62 14 62 86 0 69 -9 82 -64 91 l-36 6 0
-92z m65 -6 c0 -49 -3 -60 -17 -63 -16 -3 -18 5 -18 63 0 58 2 66 18 63 14 -3
17 -14 17 -63z"/>
<path d="M1097 3073 c-4 -3 -7 -44 -7 -90 0 -67 3 -83 15 -83 12 0 15 17 15
90 0 83 -5 101 -23 83z"/>
<path d="M1156 3073 c-3 -3 -6 -44 -6 -90 l0 -83 45 0 c25 0 45 5 45 10 0 6
-13 10 -30 10 l-30 0 0 74 c0 69 -8 95 -24 79z"/>
<path d="M1310 3060 c-15 -15 -20 -33 -20 -75 0 -42 5 -60 20 -75 44 -44 90
-8 90 73 0 86 -44 123 -90 77z m55 -75 c0 -53 -2 -60 -20 -60 -17 0 -20 8 -23
49 -4 60 3 79 25 74 15 -3 18 -14 18 -63z"/>
<path d="M1427 3073 c-4 -3 -7 -44 -7 -90 0 -67 3 -83 15 -83 10 0 15 10 15
29 0 44 17 47 34 6 8 -19 22 -35 30 -35 13 0 12 9 -6 56 -21 54 -21 57 -4 85
10 17 15 33 11 37 -6 7 -26 -14 -52 -54 -10 -17 -12 -14 -12 19 -1 35 -9 45
-24 30z"/>
<path d="M1550 2996 c0 -81 1 -87 24 -97 30 -14 63 2 71 34 10 38 1 140 -12
144 -9 3 -13 -18 -15 -74 -2 -64 -6 -78 -20 -81 -15 -3 -18 7 -20 74 -2 51 -7
79 -15 82 -10 3 -13 -18 -13 -82z"/>
<path d="M1677 3073 c-4 -3 -7 -44 -7 -90 l0 -83 45 0 c25 0 45 5 45 10 0 6
-13 10 -30 10 l-30 0 0 80 c0 73 -6 91 -23 73z"/>
<path d="M1780 2996 c0 -81 1 -87 24 -97 30 -14 63 2 71 34 10 38 1 140 -12
144 -9 3 -13 -18 -15 -74 -2 -64 -6 -78 -20 -81 -15 -3 -18 7 -20 74 -2 51 -7
79 -15 82 -10 3 -13 -18 -13 -82z"/>
<path d="M1940 3069 c0 -8 8 -49 17 -92 15 -68 19 -78 37 -75 17 3 23 17 37
86 10 49 12 85 7 88 -14 9 -17 3 -31 -67 l-14 -64 -14 64 c-8 35 -20 66 -26
69 -7 2 -13 -2 -13 -9z"/>
<path d="M2070 2990 l0 -90 40 0 c45 0 55 17 13 22 -22 2 -28 8 -28 28 0 18 7
26 23 28 29 4 28 20 0 24 -35 5 -31 42 5 46 45 5 34 32 -13 32 l-40 0 0 -90z"/>
<path d="M2208 3074 c-4 -3 2 -26 13 -51 10 -24 19 -62 19 -84 0 -28 4 -39 15
-39 10 0 15 10 15 30 0 16 9 52 20 80 23 58 24 70 9 70 -5 0 -17 -17 -26 -37
l-16 -38 -12 34 c-11 34 -25 47 -37 35z"/>
<path d="M2337 3073 c-10 -10 -8 -118 2 -146 12 -30 43 -42 71 -27 18 9 20 20
20 96 0 64 -3 85 -12 82 -9 -3 -14 -31 -16 -82 -2 -67 -5 -77 -20 -74 -14 3
-18 17 -20 81 -3 71 -8 87 -25 70z"/>
<path d="M2467 3074 c-4 -4 -7 -45 -7 -91 0 -67 3 -83 15 -83 10 0 15 11 15
35 0 19 4 35 9 35 5 0 15 -16 21 -35 6 -19 18 -35 26 -35 12 0 13 6 8 23 -9
24 -8 47 1 93 5 20 2 34 -8 42 -18 15 -70 26 -80 16z m61 -48 c4 -19 -16 -39
-30 -30 -4 3 -8 16 -8 30 0 19 5 25 17 22 10 -2 19 -12 21 -22z"/>
<path d="M2577 3073 c-13 -12 -7 -23 13 -23 18 0 20 -7 20 -75 0 -60 3 -75 15
-75 12 0 15 15 15 75 0 60 3 75 15 75 8 0 15 7 15 15 0 11 -11 15 -43 15 -24
0 -47 -3 -50 -7z"/>
<path d="M2690 2991 l0 -91 40 0 c49 0 60 18 60 93 0 62 -10 75 -64 84 l-36 6
0 -92z m65 -6 c0 -49 -3 -60 -17 -63 -16 -3 -18 5 -18 63 0 58 2 66 18 63 14
-3 17 -14 17 -63z"/>
<path d="M2817 3073 c-4 -3 -7 -44 -7 -90 0 -67 3 -83 15 -83 12 0 15 17 15
90 0 83 -5 101 -23 83z"/>
<path d="M2888 3069 c-28 -16 -21 -50 18 -90 35 -36 38 -59 9 -59 -8 0 -18 8
-24 18 -7 13 -13 14 -21 6 -9 -9 -7 -17 9 -33 25 -25 54 -27 75 -5 24 24 19
47 -19 84 -49 47 -46 79 5 48 29 -18 39 1 11 23 -26 21 -38 23 -63 8z"/>
<path d="M2990 2991 c0 -75 3 -91 15 -91 13 0 15 14 13 87 -2 58 -7 88 -15 91
-10 3 -13 -19 -13 -87z"/>
<path d="M3090 2990 l0 -90 40 0 c22 0 40 5 40 10 0 6 -11 10 -24 10 -17 0
-25 7 -28 25 -6 29 -2 35 24 35 10 0 18 5 18 10 0 6 -8 10 -18 10 -25 0 -31 7
-25 31 3 12 14 19 29 19 15 0 24 6 24 15 0 11 -11 15 -40 15 l-40 0 0 -90z"/>
<path d="M3208 3069 c-14 -8 -18 -24 -18 -79 0 -76 17 -106 54 -96 12 3 27 6
34 6 7 0 12 15 12 40 0 36 -2 40 -25 40 -14 0 -25 -4 -25 -10 0 -5 5 -10 11
-10 6 0 9 -8 7 -17 -2 -10 -10 -18 -18 -18 -11 0 -16 15 -18 63 -2 51 0 62 13
62 9 0 18 -7 21 -15 8 -19 34 -20 34 -1 0 36 -47 56 -82 35z"/>
<path d="M3320 3078 c-1 -2 -2 -42 -3 -91 -1 -64 1 -87 11 -87 9 0 12 25 12
90 0 53 -4 90 -10 90 -5 0 -10 -1 -10 -2z"/>
<path d="M3360 3066 c0 -7 9 -16 21 -19 19 -5 20 -12 17 -76 -2 -52 0 -71 10
-71 8 0 12 21 12 71 0 62 2 71 20 76 11 3 20 12 20 19 0 10 -14 14 -50 14 -36
0 -50 -4 -50 -14z"/>
<path d="M3478 2990 c-2 -67 0 -90 10 -90 9 0 12 25 12 90 0 50 -4 90 -9 90
-5 0 -11 -41 -13 -90z"/>
<path d="M3537 3074 c-4 -4 -7 -45 -7 -91 0 -67 3 -83 15 -83 11 0 15 13 16
53 l1 52 13 -48 c14 -51 21 -64 31 -55 3 4 12 28 19 55 l13 48 1 -52 c1 -41 5
-53 16 -53 13 0 15 14 13 88 -3 79 -5 87 -23 87 -16 0 -22 -10 -28 -47 -5 -27
-12 -48 -16 -48 -4 0 -12 21 -17 47 -8 45 -29 65 -47 47z"/>
<path d="M3740 2991 l0 -91 40 0 c48 0 60 18 60 87 0 61 -15 82 -63 90 l-37 6
0 -92z m65 -6 c0 -49 -3 -60 -17 -63 -16 -3 -18 5 -18 63 0 58 2 66 18 63 14
-3 17 -14 17 -63z"/>
<path d="M3896 3072 c-6 -10 -36 -146 -36 -163 0 -5 7 -9 15 -9 8 0 15 7 15
15 0 9 9 15 25 15 16 0 25 -6 25 -15 0 -8 7 -15 15 -15 18 0 18 -4 -4 95 -12
55 -22 81 -33 83 -9 2 -19 -1 -22 -6z m27 -79 c5 -25 3 -33 -8 -33 -16 0 -18
12 -9 48 8 28 9 26 17 -15z"/>
<path d="M3990 2991 c0 -74 3 -91 15 -91 11 0 15 13 16 53 l0 52 22 -52 c33
-80 47 -69 47 37 0 96 -17 125 -22 38 l-3 -53 -25 49 c-40 79 -50 72 -50 -33z"/>
<path d="M4126 3073 c-3 -3 -6 -44 -6 -90 0 -67 3 -83 15 -83 12 0 15 16 15
84 0 78 -7 105 -24 89z"/>
<path d="M4186 3058 c-22 -31 -21 -34 25 -77 24 -22 39 -43 35 -50 -10 -16
-36 -14 -42 4 -4 8 -12 15 -20 15 -23 0 -16 -28 12 -47 24 -15 29 -15 53 -2
39 22 37 44 -8 90 -23 22 -39 44 -36 50 8 12 35 12 35 -1 0 -5 7 -10 15 -10
22 0 19 27 -4 40 -30 16 -48 12 -65 -12z"/>
<path d="M4300 2990 c0 -53 4 -90 10 -90 6 0 10 26 10 57 0 67 7 64 24 -9 6
-29 16 -53 21 -52 6 1 15 25 22 53 16 72 23 75 23 8 0 -31 5 -57 10 -57 6 0
10 37 10 90 0 72 -3 90 -15 90 -18 0 -30 -23 -40 -75 l-8 -40 -12 46 c-15 57
-22 69 -41 69 -11 0 -14 -18 -14 -90z"/>
<path d="M4492 3063 c-14 -27 -35 -153 -27 -161 3 -4 12 1 19 11 16 21 42 22
50 2 7 -18 37 -20 31 -2 -2 6 -11 47 -20 90 -17 78 -34 97 -53 60z m28 -73 c0
-16 -4 -30 -10 -30 -5 0 -10 14 -10 30 0 17 5 30 10 30 6 0 10 -13 10 -30z"/>
<path d="M4590 2990 c0 -97 17 -125 22 -37 l4 52 23 -52 c36 -81 51 -71 51 38
0 68 -3 90 -12 87 -8 -3 -14 -26 -16 -53 l-3 -48 -24 51 c-13 29 -29 52 -35
52 -6 0 -10 -34 -10 -90z"/>
<path d="M4720 2991 l0 -91 45 0 c25 0 45 5 45 10 0 6 -13 10 -30 10 l-29 0
-3 77 c-2 50 -7 78 -15 81 -10 3 -13 -19 -13 -87z"/>
<path d="M4827 3073 c-4 -3 -7 -44 -7 -90 0 -67 3 -83 15 -83 12 0 15 17 15
90 0 83 -5 101 -23 83z"/>
<path d="M4898 3069 c-15 -8 -18 -24 -18 -84 0 -65 3 -76 21 -85 11 -7 28 -8
37 -4 9 4 23 6 30 5 8 -1 12 12 12 39 0 36 -2 40 -25 40 -26 0 -35 -15 -13
-22 16 -6 2 -38 -17 -38 -12 0 -15 13 -15 65 0 52 3 65 15 65 9 0 18 -7 21
-15 8 -19 34 -20 34 -2 0 18 -32 47 -51 47 -8 0 -22 -5 -31 -11z"/>
<path d="M5007 3073 c-4 -3 -7 -44 -7 -90 0 -67 3 -83 15 -83 12 0 15 17 15
90 0 83 -5 101 -23 83z"/>
<path d="M2900 2870 c0 -5 4 -10 9 -10 6 0 13 5 16 10 3 6 -1 10 -9 10 -9 0
-16 -4 -16 -10z"/>
<path d="M4205 2870 c-3 -5 1 -10 9 -10 9 0 16 5 16 10 0 6 -4 10 -9 10 -6 0
-13 -4 -16 -10z"/>
<path d="M970 2730 c0 -20 7 -20 2030 -20 2023 0 2030 0 2030 20 0 20 -7 20
-2030 20 -2023 0 -2030 0 -2030 -20z"/>
<path d="M2196 2633 c-11 -11 -6 -23 9 -23 8 0 15 4 15 9 0 13 -16 22 -24 14z"/>
<path d="M1380 2546 c0 -37 4 -66 10 -66 6 0 10 26 10 59 0 33 -4 63 -10 66
-6 4 -10 -18 -10 -59z"/>
<path d="M1425 2601 c-6 -11 9 -23 19 -14 9 9 7 23 -3 23 -6 0 -12 -4 -16 -9z"/>
<path d="M1566 2603 c-3 -3 -6 -33 -6 -65 0 -43 3 -59 13 -56 6 3 13 19 15 36
2 19 9 32 17 32 8 0 15 -13 17 -32 2 -17 9 -33 16 -36 10 -3 12 7 10 39 -3 40
-6 44 -30 47 -16 2 -28 10 -28 17 0 16 -14 27 -24 18z"/>
<path d="M1820 2601 c0 -6 5 -13 10 -16 6 -3 10 1 10 9 0 9 -4 16 -10 16 -5 0
-10 -4 -10 -9z"/>
<path d="M2472 2601 c2 -7 7 -12 11 -12 12 1 9 15 -3 20 -7 2 -11 -2 -8 -8z"/>
<path d="M2527 2604 c-4 -4 -7 -34 -7 -66 0 -78 24 -76 28 2 3 50 -6 78 -21
64z"/>
<path d="M2916 2602 c-8 -13 5 -53 15 -46 12 7 12 41 0 49 -5 3 -12 2 -15 -3z"/>
<path d="M3024 2592 c-4 -14 -14 -22 -28 -22 -43 0 -61 -44 -30 -74 9 -10 28
-14 47 -12 31 3 32 5 35 56 3 56 -14 93 -24 52z m-6 -64 c-2 -13 -10 -23 -18
-23 -8 0 -16 10 -18 23 -3 17 2 22 18 22 16 0 21 -5 18 -22z"/>
<path d="M3231 2589 c-19 -20 -20 -48 -5 -96 7 -26 24 -12 24 21 0 19 6 37 13
39 9 4 8 8 -3 17 -11 9 -12 13 -2 17 6 2 12 9 12 14 0 16 -18 10 -39 -12z"/>
<path d="M3484 2597 c-9 -25 0 -110 14 -115 9 -3 12 13 12 57 0 57 -14 89 -26
58z"/>
<path d="M3532 2599 c2 -6 8 -10 13 -10 5 0 11 4 13 10 2 6 -4 11 -13 11 -9 0
-15 -5 -13 -11z"/>
<path d="M4030 2594 c0 -8 5 -12 10 -9 6 4 8 11 5 16 -9 14 -15 11 -15 -7z"/>
<path d="M1040 2540 l0 -60 39 0 c22 0 43 5 46 10 4 6 -7 10 -24 10 -21 0 -31
5 -31 15 0 9 9 15 25 15 14 0 25 5 25 10 0 6 -11 10 -25 10 -16 0 -25 6 -25
15 0 10 10 15 31 15 17 0 28 4 24 10 -3 6 -24 10 -46 10 l-39 0 0 -60z"/>
<path d="M1710 2591 c0 -5 8 -11 17 -13 12 -2 17 -14 17 -47 1 -26 6 -46 14
-48 8 -3 12 10 12 46 0 44 3 51 20 51 11 0 20 5 20 10 0 6 -22 10 -50 10 -27
0 -50 -4 -50 -9z"/>
<path d="M2190 2539 c0 -81 24 -77 28 4 2 46 0 57 -13 57 -12 0 -15 -13 -15
-61z"/>
<path d="M4713 2593 c-24 -9 -14 -25 11 -19 38 9 41 -12 7 -48 -17 -18 -31
-35 -31 -40 0 -4 19 -6 43 -4 24 2 40 7 37 13 -3 6 -11 9 -17 9 -17 -2 -16 11
2 26 42 34 0 85 -52 63z"/>
<path d="M4807 2573 c-7 -36 -2 -43 29 -43 16 0 24 -5 21 -12 -2 -8 -16 -12
-32 -10 -19 2 -26 -1 -23 -10 6 -18 59 -16 71 3 14 22 2 49 -23 49 -11 0 -20
7 -20 15 0 9 9 15 25 15 14 0 25 5 25 10 0 6 -15 10 -34 10 -29 0 -34 -4 -39
-27z"/>
<path d="M4912 2588 c-7 -7 -12 -29 -12 -50 0 -46 28 -67 66 -49 19 8 24 18
24 49 0 43 -14 62 -45 62 -12 0 -26 -5 -33 -12z m58 -47 c0 -26 -21 -43 -37
-30 -16 14 -17 41 -1 57 14 14 38 -2 38 -27z"/>
<path d="M2578 2578 c-11 -29 4 -87 24 -94 26 -8 38 5 15 17 -21 12 -23 49 -2
49 8 0 15 5 15 10 0 6 -7 10 -15 10 -8 0 -15 5 -15 10 0 14 -17 12 -22 -2z"/>
<path d="M3777 2577 c-15 -39 28 -117 50 -93 4 5 2 11 -4 13 -17 6 -17 50 -1
55 9 3 8 9 -4 21 -20 20 -34 22 -41 4z"/>
<path d="M4208 2578 c-11 -29 4 -87 24 -94 26 -8 38 5 15 17 -22 13 -23 49 0
49 14 0 14 3 -5 20 -25 23 -28 24 -34 8z"/>
<path d="M1150 2525 c0 -52 17 -61 22 -13 2 22 9 34 21 36 14 3 17 -4 17 -33
0 -43 23 -44 28 -1 5 37 -14 56 -54 56 -34 0 -34 -1 -34 -45z"/>
<path d="M1260 2550 c-16 -31 4 -60 41 -60 19 0 28 -4 24 -11 -4 -5 -18 -9
-30 -7 -13 2 -25 -1 -27 -7 -4 -15 51 -18 68 -4 9 7 14 30 14 60 l0 49 -40 0
c-29 0 -42 -5 -50 -20z m68 -17 c5 -17 -26 -29 -40 -15 -6 6 -7 15 -3 22 9 14
37 9 43 -7z"/>
<path d="M1422 2528 c4 -59 28 -63 28 -4 0 35 -4 46 -16 46 -12 0 -14 -9 -12
-42z"/>
<path d="M1474 2555 c-8 -20 4 -35 27 -35 10 0 19 -5 19 -11 0 -7 -10 -9 -25
-7 -14 3 -25 2 -25 -3 0 -14 21 -21 46 -15 34 9 32 42 -3 54 l-28 10 28 1 c37
1 35 21 -3 21 -18 0 -33 -6 -36 -15z"/>
<path d="M1820 2525 c0 -25 5 -45 10 -45 6 0 10 20 10 45 0 25 -4 45 -10 45
-5 0 -10 -20 -10 -45z"/>
<path d="M1870 2525 c0 -52 17 -61 22 -12 2 20 8 32 18 32 10 0 16 -12 18 -32
3 -35 22 -46 22 -14 0 30 11 51 26 51 9 0 14 -12 14 -36 0 -39 23 -44 28 -6 7
45 -12 59 -83 60 l-65 1 0 -44z"/>
<path d="M2040 2551 c-19 -37 19 -79 61 -66 24 8 16 25 -10 18 -10 -3 -22 0
-25 6 -5 7 5 11 28 11 39 0 41 2 26 31 -14 26 -66 26 -80 0z m53 -8 c-7 -2
-19 -2 -25 0 -7 3 -2 5 12 5 14 0 19 -2 13 -5z"/>
<path d="M2242 2528 c4 -51 22 -58 26 -10 5 45 36 41 40 -6 5 -48 24 -39 20
11 -3 42 -3 42 -46 45 l-43 3 3 -43z"/>
<path d="M2362 2558 c-27 -27 -6 -68 36 -68 14 0 21 -4 16 -11 -3 -6 -17 -8
-31 -4 -18 4 -24 2 -21 -7 7 -20 53 -21 72 -3 10 10 16 33 16 61 l0 44 -38 0
c-21 0 -43 -5 -50 -12z m58 -28 c0 -13 -7 -20 -20 -20 -13 0 -20 7 -20 20 0
13 7 20 20 20 13 0 20 -7 20 -20z"/>
<path d="M2470 2524 c0 -59 24 -55 28 4 2 33 0 42 -12 42 -12 0 -16 -11 -16
-46z"/>
<path d="M2652 2558 c-21 -21 -14 -57 12 -70 27 -12 56 -5 56 12 0 7 -8 9 -19
5 -11 -3 -22 -1 -26 5 -4 6 6 10 24 10 19 0 31 5 31 13 0 19 -21 37 -45 37
-12 0 -26 -5 -33 -12z m45 -14 c-3 -3 -12 -4 -19 -1 -8 3 -5 6 6 6 11 1 17 -2
13 -5z"/>
<path d="M2750 2525 c0 -25 5 -45 10 -45 6 0 10 14 10 30 0 18 6 33 15 36 24
9 17 24 -10 24 -23 0 -25 -4 -25 -45z"/>
<path d="M2820 2555 c-18 -22 -4 -64 25 -71 26 -6 45 1 45 17 0 6 -9 8 -19 4
-11 -3 -22 -1 -26 5 -4 6 6 10 24 10 19 0 31 5 31 13 0 34 -57 50 -80 22z m47
-11 c-3 -3 -12 -4 -19 -1 -8 3 -5 6 6 6 11 1 17 -2 13 -5z"/>
<path d="M3071 2548 c-5 -13 -6 -29 -4 -36 8 -19 42 -34 64 -27 24 8 16 25
-10 18 -10 -3 -22 0 -25 6 -5 7 5 11 28 11 39 0 41 2 26 31 -16 28 -68 26 -79
-3z m52 -5 c-7 -2 -19 -2 -25 0 -7 3 -2 5 12 5 14 0 19 -2 13 -5z"/>
<path d="M3280 2560 c0 -5 12 -10 28 -11 l27 -1 -28 -11 c-20 -8 -27 -17 -25
-32 2 -16 11 -20 41 -21 34 -1 37 1 37 27 0 47 -10 59 -46 59 -19 0 -34 -4
-34 -10z m50 -50 c0 -5 -7 -10 -15 -10 -8 0 -15 5 -15 10 0 6 7 10 15 10 8 0
15 -4 15 -10z"/>
<path d="M3385 2561 c-4 -7 5 -11 22 -12 l28 -1 -28 -11 c-20 -8 -27 -17 -25
-32 2 -16 11 -20 41 -21 l38 -1 -3 41 c-3 38 -5 41 -35 44 -17 2 -34 -2 -38
-7z m45 -51 c0 -5 -7 -10 -15 -10 -8 0 -15 5 -15 10 0 6 7 10 15 10 8 0 15 -4
15 -10z"/>
<path d="M3532 2528 c2 -24 8 -43 13 -43 6 0 11 19 13 43 3 33 0 42 -13 42
-13 0 -16 -9 -13 -42z"/>
<path d="M3580 2544 c6 -14 15 -34 21 -45 9 -17 7 -21 -10 -26 -26 -7 -28 -23
-2 -23 23 0 33 12 59 73 17 38 18 47 7 47 -8 0 -17 -11 -21 -25 -3 -14 -10
-25 -14 -25 -4 0 -11 11 -14 25 -4 14 -13 25 -21 25 -11 0 -12 -5 -5 -26z"/>
<path d="M3680 2555 c-18 -22 -4 -64 25 -71 26 -6 45 1 45 17 0 6 -9 8 -19 4
-11 -3 -22 -1 -26 5 -4 6 6 10 24 10 19 0 31 5 31 13 0 34 -57 50 -80 22z m53
-12 c-7 -2 -19 -2 -25 0 -7 3 -2 5 12 5 14 0 19 -2 13 -5z"/>
<path d="M3902 2558 c-27 -27 -6 -68 36 -68 14 0 21 -4 16 -11 -3 -6 -17 -8
-31 -4 -18 4 -24 2 -21 -7 7 -20 53 -21 72 -3 10 10 16 33 16 61 l0 44 -38 0
c-21 0 -43 -5 -50 -12z m58 -28 c0 -13 -7 -20 -20 -20 -13 0 -20 7 -20 20 0
13 7 20 20 20 13 0 20 -7 20 -20z"/>
<path d="M4023 2563 c-22 -8 -15 -61 8 -74 30 -16 69 3 69 34 0 39 -35 58 -77
40z m50 -27 c8 -20 -20 -43 -35 -28 -14 14 -3 42 16 42 7 0 16 -6 19 -14z"/>
<path d="M4114 2555 c-8 -20 4 -35 27 -35 10 0 19 -5 19 -11 0 -6 -9 -9 -20
-6 -11 3 -22 1 -25 -4 -9 -14 44 -22 60 -9 21 18 19 27 -12 44 -26 14 -27 15
-5 16 34 0 26 20 -8 20 -18 0 -33 -6 -36 -15z"/>
<path d="M4282 2558 c-19 -19 -14 -56 8 -68 22 -12 60 -5 60 11 0 6 -9 8 -19
4 -11 -3 -22 -1 -26 5 -4 6 6 10 24 10 19 0 31 5 31 13 0 19 -21 37 -45 37
-12 0 -26 -5 -33 -12z m45 -14 c-3 -3 -12 -4 -19 -1 -8 3 -5 6 6 6 11 1 17 -2
13 -5z"/>
<path d="M4380 2525 c0 -25 5 -45 10 -45 6 0 10 14 10 30 0 18 6 33 15 36 24
9 17 24 -10 24 -23 0 -25 -4 -25 -45z"/>
<path d="M4450 2555 c-18 -22 -4 -64 25 -71 26 -6 45 1 45 17 0 6 -9 8 -19 4
-11 -3 -22 -1 -26 5 -4 6 6 10 24 10 19 0 31 5 31 13 0 34 -57 50 -80 22z m47
-11 c-3 -3 -12 -4 -19 -1 -8 3 -5 6 6 6 11 1 17 -2 13 -5z"/>
<path d="M4550 2525 c0 -52 17 -61 22 -13 4 46 35 51 40 7 4 -43 28 -51 28
-11 0 52 -9 62 -51 62 l-39 0 0 -45z"/>
<path d="M3577 2413 c-12 -11 -8 -23 8 -23 8 0 15 7 15 15 0 16 -12 20 -23 8z"/>
<path d="M4340 2406 c0 -9 7 -16 16 -16 17 0 14 22 -4 28 -7 2 -12 -3 -12 -12z"/>
<path d="M1330 2350 c0 -33 4 -60 10 -60 6 0 10 27 10 60 0 33 -4 60 -10 60
-6 0 -10 -27 -10 -60z"/>
<path d="M1577 2403 c-4 -3 -7 -30 -7 -60 0 -40 4 -53 15 -53 12 0 15 13 15
60 0 55 -6 70 -23 53z"/>
<path d="M2350 2350 c0 -47 3 -60 15 -60 8 0 15 7 15 15 0 8 4 15 9 15 5 0 11
-7 15 -15 6 -16 36 -21 36 -6 0 5 -7 14 -15 21 -14 12 -14 15 1 31 24 26 10
35 -21 15 -25 -16 -25 -16 -25 14 0 20 -5 30 -15 30 -12 0 -15 -13 -15 -60z"/>
<path d="M2570 2350 c0 -47 3 -60 15 -60 12 0 15 13 15 60 0 47 -3 60 -15 60
-12 0 -15 -13 -15 -60z"/>
<path d="M3250 2391 c0 -14 -5 -18 -19 -14 -21 5 -51 -21 -51 -46 0 -27 21
-41 62 -41 l38 0 0 60 c0 47 -3 60 -15 60 -8 0 -15 -9 -15 -19z m-2 -59 c3
-17 -2 -22 -17 -22 -14 0 -21 6 -21 18 0 38 33 41 38 4z"/>
<path d="M3615 2364 c-3 -26 -9 -53 -12 -60 -3 -8 1 -14 10 -14 18 0 23 12 32
74 6 37 4 46 -8 46 -10 0 -17 -15 -22 -46z"/>
<path d="M3675 2398 c-2 -7 -8 -34 -13 -60 -10 -50 -1 -62 27 -35 11 10 14 10
18 0 3 -7 13 -13 24 -13 16 0 17 3 7 26 -10 22 -10 28 5 39 9 7 17 15 17 19 0
12 -23 6 -42 -11 -17 -15 -18 -14 -18 15 0 31 -17 44 -25 20z"/>
<path d="M4029 2408 c-6 -13 -6 -58 -1 -58 12 0 33 40 27 50 -6 9 -23 14 -26
8z"/>
<path d="M4731 2360 c-6 -28 -11 -55 -11 -60 0 -14 28 -12 32 1 3 8 10 8 25
-2 27 -16 39 -7 25 18 -8 14 -6 23 10 41 20 20 20 22 3 22 -10 0 -27 -8 -38
-17 -19 -18 -19 -17 -12 15 5 25 3 32 -8 32 -10 0 -19 -17 -26 -50z"/>
<path d="M3827 2393 c-15 -15 -5 -25 18 -19 36 9 31 -8 -12 -49 l-38 -34 47
-1 c26 0 50 5 53 10 3 6 -3 10 -15 10 -21 0 -21 1 4 31 21 24 24 34 15 45 -12
14 -60 19 -72 7z"/>
<path d="M3926 2378 c-9 -34 -8 -35 19 -42 15 -4 23 -11 19 -17 -3 -6 -17 -8
-30 -5 -17 5 -24 2 -24 -9 0 -20 63 -20 80 0 16 19 6 45 -20 52 -24 6 -17 23
10 23 10 0 22 5 25 10 4 6 -10 10 -33 10 -33 0 -41 -4 -46 -22z"/>
<path d="M1216 2373 c-10 -11 -7 -58 6 -71 7 -7 27 -12 45 -12 32 0 33 1 33
45 0 52 -17 61 -22 13 -4 -45 -38 -53 -38 -9 0 30 -11 46 -24 34z"/>
<path d="M1373 2364 c-3 -9 -2 -28 3 -43 8 -21 17 -27 47 -29 l37 -3 0 45 c0
52 -17 63 -22 14 -4 -45 -38 -53 -38 -9 0 34 -17 51 -27 25z"/>
<path d="M1496 2367 c-22 -16 -15 -34 18 -47 19 -8 19 -9 -6 -9 -16 -1 -28 -6
-28 -12 0 -6 16 -9 37 -7 46 4 59 34 19 44 -14 3 -26 11 -26 16 0 6 9 8 21 5
13 -3 19 -1 16 6 -6 18 -30 19 -51 4z"/>
<path d="M1630 2370 c-16 -10 -8 -14 23 -11 25 3 21 -17 -5 -21 -15 -2 -23
-10 -23 -23 0 -16 8 -21 38 -23 36 -3 37 -3 37 32 0 46 -35 69 -70 46z m50
-54 c0 -9 -30 -14 -35 -6 -4 6 3 10 14 10 12 0 21 -2 21 -4z"/>
<path d="M1724 2371 c-2 -2 -4 -22 -4 -43 0 -27 4 -38 15 -38 10 0 15 10 15
30 0 20 5 30 15 30 8 0 15 6 15 14 0 13 -44 18 -56 7z"/>
<path d="M1800 2370 c-16 -10 -8 -14 23 -11 25 3 21 -17 -5 -21 -15 -2 -23
-10 -23 -23 0 -16 8 -21 38 -23 36 -3 37 -3 37 32 0 46 -35 69 -70 46z m50
-54 c0 -9 -30 -14 -35 -6 -4 6 3 10 14 10 12 0 21 -2 21 -4z"/>
<path d="M1894 2371 c-2 -2 -4 -22 -4 -43 0 -27 4 -38 15 -38 10 0 15 10 15
30 0 20 5 30 15 30 8 0 15 6 15 14 0 13 -44 18 -56 7z"/>
<path d="M1970 2370 c-16 -10 -8 -14 23 -11 25 3 21 -17 -5 -21 -15 -2 -23
-10 -23 -23 0 -16 8 -21 38 -23 36 -3 37 -3 37 32 0 46 -35 69 -70 46z m50
-54 c0 -9 -30 -14 -35 -6 -4 6 3 10 14 10 12 0 21 -2 21 -4z"/>
<path d="M2073 2373 c-23 -9 -14 -41 15 -51 l27 -10 -27 -1 c-16 -1 -28 -6
-28 -12 0 -6 14 -9 33 -7 41 4 46 39 7 48 -17 4 -21 8 -12 14 6 4 16 5 21 1 5
-3 12 -1 15 4 10 15 -26 25 -51 14z"/>
<path d="M2156 2373 c-3 -3 -6 -24 -6 -45 0 -27 4 -38 15 -38 11 0 15 11 15
39 0 38 -10 57 -24 44z"/>
<path d="M2256 2364 c-33 -32 -13 -74 36 -74 50 0 60 66 12 84 -24 9 -31 8
-48 -10z m52 -33 c-5 -24 -38 -27 -38 -3 0 10 3 21 6 25 11 11 35 -5 32 -22z"/>
<path d="M2462 2338 c3 -43 3 -43 46 -46 l43 -3 -3 43 c-4 51 -22 58 -26 10
-5 -45 -36 -41 -40 6 -5 48 -24 39 -20 -10z"/>
<path d="M2683 2373 c-21 -8 -15 -25 6 -18 11 3 22 2 25 -3 3 -5 -8 -12 -25
-16 -45 -9 -36 -40 14 -44 l37 -3 0 39 c0 46 -19 61 -57 45z m32 -63 c-3 -5
-10 -10 -16 -10 -5 0 -9 5 -9 10 0 6 7 10 16 10 8 0 12 -4 9 -10z"/>
<path d="M2770 2334 c0 -24 5 -44 10 -44 6 0 10 11 10 25 0 14 7 28 15 31 24
10 17 29 -10 30 -23 2 -25 -1 -25 -42z"/>
<path d="M2853 2373 c-21 -8 -15 -25 6 -18 11 3 22 2 25 -3 3 -5 -8 -12 -25
-16 -45 -9 -36 -40 14 -44 l37 -3 0 39 c0 46 -19 61 -57 45z m32 -63 c-3 -5
-10 -10 -16 -10 -5 0 -9 5 -9 10 0 6 7 10 16 10 8 0 12 -4 9 -10z"/>
<path d="M2946 2367 c-22 -16 -15 -34 18 -47 19 -8 19 -9 -6 -9 -16 -1 -28 -6
-28 -12 0 -6 16 -9 37 -7 46 4 59 34 19 44 -14 3 -26 11 -26 16 0 6 9 8 21 5
13 -3 19 -1 16 6 -6 18 -30 19 -51 4z"/>
<path d="M3026 2373 c-3 -3 -6 -24 -6 -45 0 -27 4 -38 15 -38 11 0 15 11 15
39 0 38 -10 57 -24 44z"/>
<path d="M3074 2371 c-2 -2 -4 -22 -4 -43 0 -27 4 -38 15 -38 10 0 15 10 15
30 0 23 4 30 20 30 16 0 20 -7 20 -30 0 -16 5 -30 10 -30 14 0 12 66 -2 78
-12 10 -65 12 -74 3z"/>
<path d="M3313 2373 c-21 -8 -15 -25 6 -18 11 3 22 1 26 -5 3 -5 -2 -10 -12
-10 -24 0 -43 -19 -36 -36 3 -9 20 -14 44 -14 36 0 39 2 39 29 0 45 -31 69
-67 54z m37 -57 c0 -11 -19 -15 -25 -6 -3 5 1 10 9 10 9 0 16 -2 16 -4z"/>
<path d="M3404 2371 c-2 -2 -4 -22 -4 -43 0 -27 4 -38 15 -38 10 0 15 10 15
31 0 24 4 30 18 27 10 -2 18 -14 20 -31 2 -15 8 -27 13 -27 14 0 11 66 -3 78
-12 10 -65 12 -74 3z"/>
<path d="M3566 2368 c-14 -46 -15 -78 -1 -78 14 0 20 15 27 64 3 22 -20 34
-26 14z"/>
<path d="M4072 2364 c-40 -28 -22 -74 30 -74 36 0 37 20 1 21 -25 1 -24 2 6 8
40 7 49 22 26 45 -20 20 -35 20 -63 0z m43 -14 c3 -5 -1 -10 -10 -10 -9 0 -13
5 -10 10 3 6 8 10 10 10 2 0 7 -4 10 -10z"/>
<path d="M4219 2359 c-10 -10 -19 -23 -19 -28 0 -17 32 -42 46 -37 8 3 14 1
14 -4 0 -6 -13 -10 -30 -10 -16 0 -30 -4 -30 -9 0 -14 40 -21 65 -11 24 9 30
20 40 80 6 36 6 36 -30 37 -24 1 -44 -6 -56 -18z m51 -24 c0 -8 -6 -15 -14
-15 -17 0 -28 14 -19 24 12 12 33 6 33 -9z"/>
<path d="M4330 2354 c-14 -37 -12 -64 5 -64 8 0 15 6 15 14 0 7 3 28 6 45 8
38 -12 43 -26 5z"/>
<path d="M4386 2371 c-2 -3 -7 -23 -11 -44 -6 -29 -4 -37 8 -37 8 0 17 13 21
30 3 18 12 30 21 30 26 0 16 25 -10 26 -14 1 -27 -1 -29 -5z"/>
<path d="M4462 2364 c-40 -28 -22 -74 30 -74 36 0 37 20 1 21 -25 1 -24 2 6 8
40 7 49 22 26 45 -20 20 -35 20 -63 0z m43 -14 c3 -6 -4 -10 -17 -10 -18 0
-20 2 -8 10 19 12 18 12 25 0z"/>
<path d="M4556 2361 c-17 -64 -17 -73 1 -69 10 2 19 13 21 26 2 12 12 27 23
32 28 15 23 27 -11 27 -19 0 -31 -6 -34 -16z"/>
<path d="M4636 2367 c-12 -9 -17 -23 -14 -42 3 -27 7 -30 41 -33 42 -4 51 15
10 21 -26 4 -26 4 5 6 24 1 32 6 32 19 0 38 -40 54 -74 29z m39 -17 c3 -5 -1
-10 -10 -10 -9 0 -13 5 -10 10 3 6 8 10 10 10 2 0 7 -4 10 -10z"/>
<path d="M986 2192 c-3 -5 27 -73 67 -153 220 -440 559 -778 992 -989 202 -99
367 -152 600 -195 118 -22 460 -31 591 -16 648 75 1217 422 1576 961 61 91
208 369 208 392 0 4 -11 8 -23 8 -21 0 -32 -17 -81 -117 -211 -434 -533 -762
-956 -977 -144 -73 -277 -125 -414 -160 -988 -257 -2001 206 -2453 1122 -48
96 -71 132 -84 132 -10 0 -20 -4 -23 -8z"/>
<path d="M1450 2125 c-27 -44 -23 -70 10 -70 22 0 25 5 26 35 1 19 5 43 9 53
14 33 -23 18 -45 -18z"/>
<path d="M1540 2125 c-27 -44 -23 -70 10 -70 22 0 25 5 26 35 1 19 5 43 9 53
13 32 -22 18 -45 -18z"/>
<path d="M4485 2151 c-12 -21 -14 -101 -2 -101 17 0 59 68 55 88 -4 19 -43 29
-53 13z"/>
<path d="M4576 2151 c-4 -5 -6 -22 -5 -38 1 -15 -2 -36 -6 -45 -5 -13 -3 -18
8 -18 19 0 60 64 55 87 -4 20 -42 30 -52 14z"/>
<path d="M3124 2134 c-63 -31 -83 -111 -40 -161 21 -24 32 -28 75 -28 58 0 93
23 72 48 -9 12 -18 13 -42 4 -21 -8 -34 -9 -47 -1 -24 15 -27 62 -6 85 18 20
64 25 80 9 7 -7 17 -5 30 5 19 15 19 15 -5 35 -28 24 -74 25 -117 4z"/>
<path d="M3334 2136 c-43 -19 -64 -53 -64 -103 0 -132 199 -119 217 14 4 32 1
45 -18 67 -29 33 -89 43 -135 22z m84 -48 c33 -33 0 -98 -49 -98 -34 0 -52 28
-43 65 10 40 65 60 92 33z"/>
<path d="M4113 2135 c-37 -16 -63 -60 -63 -109 0 -26 7 -40 32 -61 27 -23 39
-26 76 -22 53 6 68 20 77 70 7 35 6 37 -18 37 -19 0 -26 -6 -30 -30 -5 -24
-12 -30 -31 -30 -34 0 -58 27 -50 54 15 50 59 70 103 46 14 -7 23 -5 36 10 16
18 15 19 -14 34 -37 19 -76 20 -118 1z"/>
<path d="M1606 2058 c-22 -114 -22 -118 12 -109 17 5 28 15 30 29 3 19 10 22
48 22 55 0 94 33 94 78 0 46 -27 62 -102 62 l-65 0 -17 -82z m122 18 c5 -22
-13 -36 -45 -36 -25 0 -26 3 -17 38 5 18 13 22 33 20 16 -2 27 -10 29 -22z"/>
<path d="M1820 2083 c-7 -32 -15 -75 -20 -95 -4 -21 -7 -38 -6 -39 0 0 12 -2
25 -3 18 -2 25 4 33 26 12 35 33 36 51 1 10 -18 23 -27 41 -28 29 -1 32 6 14
35 -11 16 -9 23 10 40 31 29 38 65 18 95 -15 23 -23 25 -86 25 l-69 0 -11 -57z
m116 2 c9 -21 -14 -45 -42 -45 -24 0 -30 14 -18 44 8 20 53 21 60 1z"/>
<path d="M2026 2058 c-24 -121 -28 -113 61 -111 71 1 78 3 81 22 3 19 -1 21
-48 21 -44 0 -51 3 -48 18 2 13 15 18 51 20 39 3 47 6 47 23 0 16 -7 19 -45
19 -35 0 -43 3 -39 15 4 10 21 15 54 15 44 0 60 10 60 36 0 2 -35 4 -79 4
l-78 0 -17 -82z"/>
<path d="M2217 2052 c-21 -111 -21 -109 5 -107 23 2 36 25 37 68 1 38 13 34
33 -13 9 -22 21 -40 26 -40 6 0 25 19 42 43 l32 42 -7 -51 c-6 -47 -5 -51 14
-49 11 1 23 4 26 6 2 3 13 47 24 97 l18 92 -26 0 c-20 0 -36 -12 -65 -50 -21
-27 -42 -50 -46 -50 -4 0 -16 23 -26 50 -15 43 -22 50 -44 50 -25 0 -27 -4
-43 -88z"/>
<path d="M2505 2128 c-7 -23 -35 -171 -33 -174 2 -1 14 -4 27 -6 24 -3 26 1
43 82 22 110 22 110 -7 110 -14 0 -27 -6 -30 -12z"/>
<path d="M2586 2058 c-24 -121 -28 -113 61 -111 71 1 78 3 81 22 3 19 -1 21
-48 21 -44 0 -51 3 -48 18 2 13 15 18 51 20 39 3 47 6 47 23 0 16 -7 19 -40
19 -29 0 -40 4 -40 15 0 11 12 15 49 15 45 0 61 10 61 36 0 2 -35 4 -79 4
l-78 0 -17 -82z"/>
<path d="M2777 2052 c-21 -112 -22 -107 9 -107 20 0 27 6 31 28 7 33 27 35 48
3 15 -22 58 -40 69 -28 3 2 -2 15 -10 27 -14 21 -13 25 10 49 31 30 34 76 8
99 -13 12 -37 17 -83 17 l-65 0 -17 -88z m126 36 c9 -25 -13 -48 -44 -48 -24
0 -30 4 -25 16 3 9 6 22 6 30 0 18 56 19 63 2z"/>
<path d="M3535 2128 c-4 -13 -35 -167 -35 -174 0 -2 33 -4 74 -4 58 0 75 3 80
16 9 24 9 24 -40 24 l-47 0 7 38 c3 20 9 54 12 75 6 35 5 37 -20 37 -15 0 -28
-6 -31 -12z"/>
<path d="M3695 2050 c-10 -49 -17 -92 -16 -96 0 -3 34 -6 74 -6 66 0 72 2 75
21 3 19 -1 21 -42 21 -25 0 -46 3 -46 8 0 6 11 56 25 120 5 19 1 22 -24 22
-28 0 -29 -1 -46 -90z"/>
<path d="M3885 2128 c-5 -15 -35 -167 -35 -177 0 -3 35 -5 77 -4 71 1 78 3 81
22 3 19 -1 21 -48 21 -43 0 -51 3 -46 16 3 9 6 18 6 20 0 2 20 4 45 4 38 0 45
3 45 20 0 17 -7 20 -40 20 -28 0 -40 4 -40 14 0 11 15 16 52 18 41 2 54 7 56
21 3 15 -6 17 -73 17 -52 0 -77 -4 -80 -12z"/>
<path d="M4295 2128 c-7 -24 -35 -171 -33 -174 2 -1 36 -4 76 -5 55 -2 76 1
83 12 16 25 10 29 -45 29 -49 0 -54 2 -49 20 4 16 14 20 48 20 28 0 45 5 48
14 8 20 -2 26 -45 26 -27 0 -38 4 -38 15 0 12 13 15 55 15 48 0 55 2 55 20 0
18 -7 20 -75 20 -52 0 -77 -4 -80 -12z"/>
<path d="M1740 1860 c0 -5 5 -10 10 -10 6 0 10 5 10 10 0 6 -4 10 -10 10 -5 0
-10 -4 -10 -10z"/>
<path d="M1780 1860 c0 -5 5 -10 10 -10 6 0 10 5 10 10 0 6 -4 10 -10 10 -5 0
-10 -4 -10 -10z"/>
<path d="M1940 1860 c0 -5 5 -10 10 -10 6 0 10 5 10 10 0 6 -4 10 -10 10 -5 0
-10 -4 -10 -10z"/>
<path d="M2210 1851 c0 -14 -5 -18 -19 -14 -28 7 -56 -38 -41 -66 8 -16 21
-21 50 -21 l40 0 0 60 c0 47 -3 60 -15 60 -8 0 -15 -9 -15 -19z m-3 -42 c14
-14 6 -39 -12 -39 -18 0 -28 17 -21 35 6 18 18 19 33 4z"/>
<path d="M3390 1810 c0 -33 4 -60 10 -60 6 0 10 7 10 15 0 8 4 15 9 15 5 0 14
-7 21 -15 7 -8 19 -15 28 -15 12 0 12 4 -4 21 -15 17 -16 23 -5 41 16 26 6 36
-17 15 -26 -24 -32 -21 -32 13 0 17 -4 30 -10 30 -6 0 -10 -27 -10 -60z"/>
<path d="M3600 1810 c0 -47 3 -60 15 -60 12 0 15 13 15 60 0 47 -3 60 -15 60
-12 0 -15 -13 -15 -60z"/>
<path d="M3650 1810 c0 -47 3 -60 15 -60 12 0 15 13 15 60 0 47 -3 60 -15 60
-12 0 -15 -13 -15 -60z"/>
<path d="M4500 1851 c0 -14 -5 -18 -19 -14 -28 7 -56 -38 -41 -66 8 -16 21
-21 50 -21 l40 0 0 60 c0 47 -3 60 -15 60 -8 0 -15 -9 -15 -19z m-2 -59 c2
-14 -2 -22 -12 -22 -19 0 -29 17 -22 36 8 22 30 12 34 -14z"/>
<path d="M1483 1841 c-6 -10 -8 -22 -3 -27 5 -5 10 -20 12 -34 2 -18 10 -26
28 -28 23 -2 24 -1 8 11 -20 16 -24 42 -8 52 6 4 5 13 -3 25 -15 25 -19 25
-34 1z"/>
<path d="M1653 1841 c-6 -10 -8 -22 -3 -27 5 -5 10 -20 12 -34 2 -17 10 -26
26 -28 12 -2 22 1 22 7 0 6 -7 11 -15 11 -19 0 -20 39 -1 46 12 5 11 9 -5 25
-23 23 -22 23 -36 0z"/>
<path d="M1402 1828 c-19 -19 -14 -36 16 -46 l27 -10 -27 -1 c-16 -1 -28 -5
-28 -11 0 -14 53 -13 67 1 16 16 5 39 -18 39 -10 0 -19 5 -19 10 0 6 9 10 21
10 11 0 17 5 14 10 -8 14 -38 13 -53 -2z"/>
<path d="M1560 1830 c-16 -10 -8 -14 23 -11 25 3 21 -17 -5 -21 -15 -2 -23
-10 -23 -23 0 -16 8 -21 38 -23 36 -3 37 -2 37 30 0 51 -32 73 -70 48z m40
-48 c0 -13 -12 -22 -22 -16 -10 6 -1 24 13 24 5 0 9 -4 9 -8z"/>
<path d="M1728 1835 c-3 -3 -2 -22 1 -43 6 -34 9 -37 44 -40 l37 -3 0 45 c0
52 -17 63 -22 14 -2 -21 -8 -33 -18 -33 -10 0 -16 12 -18 33 -3 30 -11 39 -24
27z"/>
<path d="M1842 1828 c-18 -18 -15 -26 16 -42 l27 -15 -27 -1 c-16 0 -28 -5
-28 -11 0 -6 16 -9 38 -7 29 2 37 7 37 23 0 13 -8 21 -22 23 -13 2 -23 8 -23
14 0 6 9 8 21 5 13 -3 19 -1 16 6 -5 17 -40 20 -55 5z"/>
<path d="M1923 1824 c-3 -9 -2 -28 3 -43 8 -21 17 -27 47 -29 l37 -3 0 45 c0
52 -17 63 -22 14 -2 -22 -9 -34 -20 -36 -15 -3 -18 4 -18 32 0 37 -16 49 -27
20z"/>
<path d="M2040 1793 c0 -23 5 -43 10 -43 6 0 10 13 10 29 0 16 6 31 14 34 19
8 26 -1 26 -35 0 -18 5 -28 15 -28 18 0 20 41 5 70 -7 14 -20 19 -45 18 -34
-1 -35 -2 -35 -45z"/>
<path d="M2278 1829 c-21 -12 -24 -49 -6 -67 15 -15 54 -16 63 -2 4 6 -5 10
-19 10 -14 0 -26 5 -26 10 0 6 14 10 30 10 33 0 38 11 14 34 -18 18 -32 20
-56 5z m42 -19 c0 -5 -9 -10 -21 -10 -11 0 -17 5 -14 10 3 6 13 10 21 10 8 0
14 -4 14 -10z"/>
<path d="M2428 1829 c-21 -12 -24 -49 -6 -67 15 -15 54 -16 63 -2 4 6 -5 10
-19 10 -14 0 -26 5 -26 10 0 6 14 10 30 10 33 0 38 11 14 34 -18 18 -32 20
-56 5z m42 -19 c0 -5 -9 -10 -21 -10 -11 0 -17 5 -14 10 3 6 13 10 21 10 8 0
14 -4 14 -10z"/>
<path d="M2520 1793 c0 -50 17 -59 22 -10 2 20 8 32 18 32 10 0 16 -12 18 -32
4 -40 32 -46 32 -7 0 45 -17 64 -55 62 -34 -1 -35 -2 -35 -45z"/>
<path d="M2683 1833 c-23 -9 -14 -41 15 -51 l27 -10 -27 -1 c-37 -1 -36 -21 0
-21 36 0 56 18 41 37 -7 7 -18 13 -25 13 -8 0 -14 5 -14 10 0 6 9 10 21 10 11
0 17 5 14 10 -6 10 -31 12 -52 3z"/>
<path d="M2770 1830 c-16 -10 -8 -14 23 -11 25 3 21 -17 -5 -21 -15 -2 -23
-10 -23 -23 0 -16 8 -21 38 -23 36 -3 37 -2 37 30 0 51 -32 73 -70 48z m40
-48 c0 -13 -12 -22 -22 -16 -10 6 -1 24 13 24 5 0 9 -4 9 -8z"/>
<path d="M2850 1836 c0 -2 7 -20 15 -39 8 -20 15 -41 15 -47 0 -5 -7 -10 -15
-10 -8 0 -15 -4 -15 -10 0 -5 11 -10 24 -10 19 0 28 10 45 49 23 55 26 71 11
71 -5 0 -12 -11 -16 -25 -3 -14 -9 -25 -13 -25 -4 0 -13 11 -19 25 -10 20 -32
35 -32 21z"/>
<path d="M2968 1829 c-40 -22 -6 -89 36 -73 9 3 16 1 16 -5 0 -6 -13 -11 -30
-11 -16 0 -30 -4 -30 -10 0 -5 16 -10 35 -10 41 0 58 24 53 77 -3 32 -6 36
-33 39 -16 2 -38 -2 -47 -7z m49 -25 c9 -23 -13 -40 -32 -24 -12 10 -13 16 -4
26 15 18 28 18 36 -2z"/>
<path d="M3070 1796 c0 -35 4 -46 16 -46 12 0 14 9 12 42 -4 59 -28 63 -28 4z"/>
<path d="M3120 1793 c0 -23 5 -43 10 -43 6 0 10 11 10 24 0 25 22 51 33 39 4
-3 7 -19 7 -35 0 -18 5 -28 15 -28 10 0 15 10 15 34 0 40 -14 53 -57 53 -32 0
-33 -2 -33 -44z"/>
<path d="M3285 1820 c-27 -30 -7 -70 35 -70 42 0 62 40 35 70 -10 11 -26 20
-35 20 -9 0 -25 -9 -35 -20z m53 -28 c3 -17 -2 -22 -17 -22 -14 0 -21 6 -21
18 0 38 33 41 38 4z"/>
<path d="M3490 1812 c0 -52 9 -62 51 -62 l39 0 0 46 c0 53 -23 58 -28 6 -2
-19 -9 -32 -17 -32 -8 0 -15 13 -17 32 -4 42 -28 50 -28 10z"/>
<path d="M3710 1830 c-16 -10 -8 -14 23 -11 25 3 21 -17 -5 -21 -15 -2 -23
-10 -23 -23 0 -16 8 -21 38 -23 36 -3 37 -2 37 30 0 51 -32 73 -70 48z m40
-48 c0 -13 -12 -22 -22 -16 -10 6 -1 24 13 24 5 0 9 -4 9 -8z"/>
<path d="M3804 1831 c-2 -2 -4 -22 -4 -43 0 -27 4 -38 15 -38 10 0 15 10 15
29 0 16 6 31 15 35 24 9 17 24 -11 22 -14 0 -28 -3 -30 -5z"/>
<path d="M3927 1833 c-14 -13 -6 -24 12 -18 11 3 22 1 26 -5 3 -5 -2 -10 -12
-10 -24 0 -43 -19 -36 -36 3 -9 20 -14 44 -14 36 0 39 2 39 29 0 44 -48 80
-73 54z m43 -51 c0 -13 -12 -22 -22 -16 -10 6 -1 24 13 24 5 0 9 -4 9 -8z"/>
<path d="M4020 1794 c0 -32 4 -44 15 -44 10 0 15 10 15 30 0 17 5 30 10 30 22
0 8 25 -15 26 -23 2 -25 -1 -25 -42z"/>
<path d="M4097 1833 c-14 -13 -6 -24 12 -18 11 3 22 1 26 -5 3 -5 -2 -10 -12
-10 -24 0 -43 -19 -36 -36 3 -9 20 -14 44 -14 36 0 39 2 39 29 0 44 -48 80
-73 54z m43 -51 c0 -13 -12 -22 -22 -16 -10 6 -1 24 13 24 5 0 9 -4 9 -8z"/>
<path d="M4192 1828 c-19 -19 -15 -28 21 -43 l32 -14 -34 -1 c-25 0 -32 -3
-24 -11 6 -6 23 -9 39 -7 37 4 42 41 7 46 -13 2 -23 8 -23 13 0 6 8 9 18 7 11
-2 20 2 21 7 3 15 -42 18 -57 3z"/>
<path d="M4280 1795 c0 -25 5 -45 10 -45 6 0 10 20 10 45 0 25 -4 45 -10 45
-5 0 -10 -20 -10 -45z"/>
<path d="M4330 1793 c0 -23 5 -43 10 -43 6 0 10 13 10 29 0 16 6 31 14 34 19
8 26 -1 26 -35 0 -18 5 -28 15 -28 18 0 20 41 5 70 -7 14 -20 19 -45 18 -34
-1 -35 -2 -35 -45z"/>
<path d="M4560 1830 c-16 -10 -8 -14 23 -11 25 3 21 -17 -5 -21 -15 -2 -23
-10 -23 -23 0 -16 8 -21 38 -23 36 -3 37 -2 37 30 0 51 -32 73 -70 48z m40
-48 c0 -13 -12 -22 -22 -16 -10 6 -1 24 13 24 5 0 9 -4 9 -8z"/>
<path d="M2685 1671 c-6 -11 9 -23 19 -14 9 9 7 23 -3 23 -6 0 -12 -4 -16 -9z"/>
<path d="M2850 1665 c0 -8 5 -15 10 -15 6 0 10 7 10 15 0 8 -4 15 -10 15 -5 0
-10 -7 -10 -15z"/>
<path d="M3042 1613 c4 -81 28 -85 28 -4 0 48 -3 61 -15 61 -13 0 -15 -11 -13
-57z"/>
<path d="M3397 1647 c-15 -39 28 -117 50 -93 4 5 2 11 -4 13 -17 6 -17 50 -1
55 9 3 8 9 -4 21 -20 20 -34 22 -41 4z"/>
<path d="M2410 1635 c0 -3 7 -22 15 -42 8 -19 15 -39 15 -44 0 -5 -7 -9 -15
-9 -8 0 -15 -4 -15 -10 0 -5 9 -10 20 -10 19 0 48 43 64 98 11 32 -12 28 -25
-5 l-11 -28 -14 28 c-13 23 -34 37 -34 22z"/>
<path d="M2522 1628 c-21 -21 -14 -57 12 -70 26 -11 61 -4 52 11 -3 5 -15 7
-25 4 -10 -3 -22 0 -25 6 -5 7 5 11 28 11 23 0 36 5 36 13 0 19 -21 37 -45 37
-12 0 -26 -5 -33 -12z m48 -18 c0 -5 -7 -10 -15 -10 -8 0 -15 5 -15 10 0 6 7
10 15 10 8 0 15 -4 15 -10z"/>
<path d="M2620 1594 c0 -24 5 -44 10 -44 6 0 10 14 10 30 0 18 6 33 15 36 23
9 18 22 -10 22 -23 0 -25 -4 -25 -44z"/>
<path d="M2690 1595 c0 -25 5 -45 10 -45 6 0 10 20 10 45 0 25 -4 45 -10 45
-5 0 -10 -20 -10 -45z"/>
<path d="M2734 1626 c-8 -22 0 -69 13 -73 7 -3 13 9 15 29 4 45 32 45 36 1 5
-49 24 -40 20 10 -3 41 -4 42 -41 45 -26 2 -39 -1 -43 -12z"/>
<path d="M2850 1595 c0 -25 5 -45 10 -45 6 0 10 20 10 45 0 25 -4 45 -10 45
-5 0 -10 -20 -10 -45z"/>
<path d="M2945 1631 c-4 -7 4 -11 19 -11 14 0 26 -4 26 -10 0 -5 -12 -10 -26
-10 -21 0 -25 -4 -22 -22 2 -19 10 -23 41 -25 l38 -1 -3 41 c-3 39 -5 42 -35
45 -17 2 -34 -2 -38 -7z m50 -51 c-3 -5 -13 -10 -21 -10 -8 0 -14 5 -14 10 0
6 9 10 21 10 11 0 17 -4 14 -10z"/>
<path d="M3092 1598 c4 -53 28 -65 28 -14 0 47 27 50 32 4 4 -43 26 -48 30 -6
4 45 32 45 36 1 5 -49 24 -40 20 10 l-3 42 -73 3 -73 2 3 -42z"/>
<path d="M3262 1598 c4 -59 28 -63 28 -4 0 35 -4 46 -16 46 -12 0 -14 -9 -12
-42z"/>
<path d="M3317 1633 c-14 -14 -6 -34 18 -43 14 -5 25 -12 25 -16 0 -3 -11 -4
-25 -2 -28 6 -32 -3 -11 -22 8 -6 12 -18 9 -26 -4 -10 0 -12 11 -8 10 4 15 13
12 21 -3 7 1 16 9 19 24 10 17 39 -12 51 l-28 11 28 1 c15 1 27 6 27 11 0 11
-53 14 -63 3z"/>
<path d="M3470 1594 c0 -59 24 -55 28 4 2 33 0 42 -12 42 -12 0 -16 -11 -16
-46z"/>
<path d="M3520 1594 c0 -49 22 -59 28 -13 2 13 8 28 13 34 16 16 10 25 -16 25
-23 0 -25 -4 -25 -46z"/>
<path d="M3587 1574 c-8 -8 1 -24 14 -24 5 0 9 7 9 15 0 15 -12 20 -23 9z"/>
<path d="M2759 1307 c-8 -19 -20 -27 -37 -27 -25 0 -25 0 -6 -21 10 -12 17
-32 16 -45 -4 -26 7 -31 26 -12 9 9 18 9 37 0 25 -11 26 -11 23 12 -1 13 6 33
16 45 19 21 19 21 -7 21 -19 0 -31 8 -41 27 l-14 28 -13 -28z"/>
<path d="M2942 1306 c-7 -16 -20 -26 -32 -26 -24 0 -26 -13 -4 -31 10 -8 13
-21 9 -36 -6 -26 -2 -28 26 -13 13 8 25 7 39 0 18 -9 20 -8 20 16 0 15 7 36
17 46 15 17 15 18 -10 18 -18 0 -31 8 -40 26 l-13 25 -12 -25z"/>
<path d="M3122 1306 c-7 -16 -20 -26 -32 -26 -24 0 -26 -13 -4 -31 9 -7 14
-22 11 -36 -4 -19 -1 -23 12 -17 21 9 42 9 64 -1 16 -6 17 -4 11 19 -4 19 -1
33 11 46 17 19 17 20 -3 20 -11 0 -29 12 -39 26 l-19 26 -12 -26z"/>
<path d="M2575 1300 c-4 -13 -15 -20 -31 -20 -27 0 -33 -17 -9 -26 9 -4 15
-19 15 -35 0 -27 2 -29 20 -19 14 7 26 8 39 0 29 -15 34 -13 27 13 -3 14 1 33
10 45 14 20 14 22 -5 22 -12 0 -26 9 -33 20 -7 11 -16 20 -20 20 -4 0 -10 -9
-13 -20z"/>
<path d="M3305 1300 c-4 -13 -15 -20 -31 -20 -27 0 -33 -17 -9 -26 9 -4 15
-19 15 -35 0 -27 1 -28 25 -17 19 9 28 9 37 0 19 -19 31 -14 25 9 -3 12 1 32
10 45 14 23 14 24 -6 24 -11 0 -26 9 -33 20 -7 11 -16 20 -20 20 -4 0 -10 -9
-13 -20z"/>
<path d="M196 2962 c-8 -13 11 -264 29 -384 142 -941 761 -1753 1636 -2144
576 -258 1238 -311 1857 -149 1062 279 1880 1177 2051 2255 19 119 41 328 41
398 l0 32 -222 -2 -223 -3 -6 -120 c-40 -723 -435 -1406 -1052 -1815 -393
-261 -827 -392 -1302 -392 -220 0 -386 20 -591 72 -1008 256 -1735 1154 -1777
2195 l-2 60 -217 3 c-119 1 -219 -2 -222 -6z m314 -209 c0 -16 3 -37 6 -49 5
-19 -1 -21 -84 -32 -131 -18 -142 -17 -142 12 0 21 5 24 58 30 107 13 123 17
121 35 -2 27 0 31 21 31 15 0 20 -7 20 -27z m5193 -19 c17 -5 24 -39 9 -48 -4
-2 -45 0 -90 6 -78 10 -82 12 -82 35 0 25 0 25 73 18 39 -3 80 -9 90 -11z
m-59 -129 c51 -8 60 -16 51 -44 -5 -16 -11 -18 -43 -10 -64 15 -90 11 -98 -13
-9 -29 22 -54 79 -62 41 -6 44 -9 39 -32 -5 -28 -3 -28 -124 -2 -41 8 -48 13
-48 34 0 13 4 24 8 24 5 0 7 13 4 29 -7 48 36 98 74 86 6 -2 32 -7 58 -10z
m-5139 -1 c22 -9 45 -57 45 -94 0 -64 -91 -112 -166 -88 -44 15 -74 61 -74
116 0 51 43 41 47 -11 2 -35 19 -57 45 -57 15 0 17 3 8 19 -37 71 22 143 95
115z m70 -248 c71 -71 26 -163 -84 -174 -47 -4 -53 -2 -86 31 -28 28 -35 43
-35 75 0 35 2 39 20 35 12 -3 20 -14 20 -27 0 -33 28 -66 56 -66 24 0 24 1 10
22 -24 34 -21 94 6 112 32 23 65 20 93 -8z m5019 -12 c41 -14 47 -19 41 -38
-4 -11 -10 -39 -15 -60 -13 -65 -65 -87 -96 -41 -8 13 -13 33 -10 45 3 11 9
29 12 40 4 14 1 20 -11 20 -17 0 -39 -46 -31 -67 7 -17 -22 -29 -36 -15 -15
15 -2 75 23 106 24 31 55 33 123 10z m-4915 -256 c25 -64 29 -83 19 -90 -7 -5
-60 -6 -118 -2 -79 4 -108 10 -117 22 -7 9 -13 19 -13 24 0 4 45 8 99 8 l99 0
-11 31 c-9 21 -17 29 -30 25 -15 -4 -45 29 -35 39 6 6 52 24 64 24 6 1 25 -36
43 -81z m4823 31 c66 -26 73 -32 59 -58 l-12 -21 -39 20 c-62 32 -100 24 -100
-21 0 -5 24 -21 53 -35 65 -33 61 -28 48 -53 l-11 -20 -51 21 c-38 16 -55 19
-68 11 -32 -20 -19 -47 37 -72 52 -25 59 -34 43 -59 -13 -21 -161 44 -161 70
0 10 6 21 13 23 6 3 13 17 14 32 0 15 12 37 25 48 16 14 23 31 24 59 0 28 7
44 23 58 29 23 38 23 103 -3z m-4735 -185 c9 -23 -17 -42 -61 -46 -46 -4 -61
17 -23 31 14 6 28 15 32 20 10 17 45 13 52 -5z m-8 -150 c19 -16 31 -35 31
-50 0 -29 0 -29 43 -4 l34 20 10 -23 c10 -22 6 -27 -87 -80 -117 -68 -120 -69
-124 -24 -1 6 -12 22 -25 33 -46 39 -26 120 34 145 34 14 52 10 84 -17z m4587
-15 c54 -30 68 -54 39 -65 -8 -4 -15 -14 -15 -24 0 -27 -39 -70 -64 -70 -46 0
-59 45 -30 101 8 17 13 34 9 37 -11 12 -40 -15 -50 -46 -9 -32 -28 -42 -40
-22 -11 17 15 79 42 100 34 27 46 25 109 -11z m-222 -131 c8 -13 22 -58 32
-100 10 -43 20 -78 23 -78 3 0 21 23 39 50 30 43 36 48 52 38 17 -11 15 -17
-35 -87 -72 -103 -82 -101 -115 22 l-26 98 -32 -45 c-35 -48 -39 -51 -60 -37
-10 6 -1 26 40 84 29 42 56 76 60 77 4 0 14 -10 22 -22z m-4209 -90 c33 -39
33 -87 1 -117 l-23 -22 -38 51 c-24 33 -41 48 -47 42 -11 -11 7 -52 28 -65 17
-10 19 -47 3 -47 -6 0 -26 15 -45 34 -53 53 -44 124 18 150 41 18 74 9 103
-26z m125 -163 c0 -7 11 -20 25 -29 61 -40 54 -82 -23 -151 -41 -36 -43 -37
-57 -19 -12 17 -10 23 26 59 43 45 49 69 20 85 -27 14 -26 14 -72 -27 -39 -36
-40 -36 -59 -17 -19 19 -18 20 48 76 50 43 69 54 79 46 7 -6 13 -16 13 -23z
m3908 -85 c4 0 16 -7 27 -15 18 -15 17 -17 -30 -65 -49 -49 -49 -50 -22 -50
21 0 33 8 45 30 17 30 52 42 52 18 0 -26 -39 -75 -69 -87 -80 -34 -152 52
-110 130 12 23 67 51 87 44 8 -3 17 -5 20 -5z m-3574 -173 c46 -41 59 -58 59
-81 0 -29 -24 -56 -50 -56 -9 0 -11 -8 -7 -24 6 -27 -24 -66 -52 -66 -37 0
-158 94 -150 116 6 16 129 163 136 164 3 0 31 -24 64 -53z m3404 1 c-2 -13
-11 -24 -23 -26 -47 -9 -59 -46 -26 -76 26 -24 53 -17 69 17 15 32 52 38 52 8
0 -29 -46 -79 -80 -86 -60 -13 -120 48 -104 108 14 58 120 109 112 55z m-177
-120 c1 -7 0 -42 -1 -77 l-2 -65 37 28 c30 23 39 26 46 15 13 -21 13 -22 -43
-63 -77 -58 -84 -55 -80 32 2 39 0 72 -3 72 -4 0 -18 -9 -32 -20 -31 -24 -39
-25 -47 -5 -3 10 13 28 47 55 54 41 76 49 78 28z m-221 -64 c11 -12 10 -18 -3
-32 -16 -15 -18 -15 -34 0 -13 14 -14 20 -3 32 7 9 16 16 20 16 4 0 13 -7 20
-16z m-2817 -24 c31 -25 42 -65 26 -102 -6 -15 -13 -28 -16 -28 -2 0 -27 16
-55 35 -29 19 -54 33 -56 30 -11 -11 12 -44 38 -55 29 -12 43 -50 19 -50 -27
0 -81 35 -94 61 -21 40 -19 63 11 98 31 38 87 43 127 11z m2893 -90 c39 -58
45 -72 34 -85 -7 -8 -16 -15 -21 -15 -5 0 -30 32 -55 71 -44 67 -45 71 -27 84
10 8 19 15 20 15 2 0 24 -31 49 -70z m-127 -45 c55 -97 58 -106 41 -115 -10
-5 -21 -10 -23 -10 -7 0 -117 189 -117 200 0 7 26 28 37 30 1 0 28 -47 62
-105z m-2609 26 c0 -5 14 -11 30 -15 27 -5 30 -8 20 -26 -8 -15 -17 -18 -40
-14 -26 6 -32 2 -57 -40 -28 -47 -37 -52 -62 -37 -11 7 -5 24 29 84 38 66 46
75 62 66 10 -5 18 -13 18 -18z m2445 -6 c0 -23 -34 -33 -46 -14 -10 17 9 41
30 37 9 -2 16 -12 16 -23z m-2265 -1 c11 -12 10 -18 -3 -32 -16 -15 -18 -15
-33 0 -19 18 -12 48 9 48 8 0 20 -7 27 -16z m2329 -112 c39 -77 39 -78 19 -91
-24 -15 -22 -17 -70 77 -32 62 -33 63 -14 78 11 8 21 14 23 14 1 0 20 -35 42
-78z m-2390 -34 c-36 -71 -41 -77 -59 -68 -11 6 -20 13 -20 15 0 3 17 38 37
79 34 69 38 73 59 64 l23 -11 -40 -79z m2269 -25 c46 -112 41 -152 -23 -179
-52 -21 -95 -19 -95 6 0 15 7 20 28 20 36 0 72 26 72 51 0 20 0 20 -26 0 -26
-21 -67 -27 -99 -15 -19 8 -45 55 -45 84 0 29 52 80 82 80 13 0 32 7 42 15 11
8 23 15 26 15 4 0 21 -35 38 -77z m-545 15 c7 -21 -4 -38 -23 -38 -23 0 -34
16 -26 35 7 18 43 20 49 3z m-1117 -63 c23 -15 25 -19 12 -32 -13 -12 -19 -12
-51 3 -68 33 -95 -11 -27 -46 22 -11 47 -31 56 -45 22 -34 1 -76 -46 -90 -28
-8 -34 -14 -32 -33 2 -13 -3 -25 -12 -28 -22 -8 -68 4 -61 17 4 5 15 7 26 4
11 -4 19 -2 19 4 0 6 -5 11 -11 11 -6 0 -9 6 -6 14 4 9 -7 22 -29 35 -30 18
-33 24 -24 41 10 19 11 19 43 0 17 -11 45 -20 60 -20 42 0 31 28 -23 60 -38
22 -45 31 -48 62 -2 28 2 40 20 53 28 20 96 15 134 -10z m-365 -1 c9 -11 10
-20 3 -32 -15 -23 -29 -25 -48 -7 -12 12 -13 21 -6 36 13 23 33 25 51 3z
m1752 -2 c9 -10 26 -44 37 -76 l19 -57 -22 -8 c-29 -11 -33 -8 -46 41 -16 62
-24 72 -56 64 -26 -7 -27 -9 -21 -54 12 -85 12 -87 -10 -90 -18 -3 -24 7 -42
70 -28 92 -28 100 1 96 12 -1 33 5 47 15 32 22 73 22 93 -1z m-1243 -12 c0
-24 -26 -38 -42 -22 -16 16 -2 42 22 42 13 0 20 -7 20 -20z m1009 -86 c13 -58
21 -107 19 -109 -1 -1 -13 -5 -24 -9 -20 -6 -23 -1 -39 71 -9 43 -20 92 -25
110 -9 36 -5 43 25 43 19 0 24 -11 44 -106z m-274 61 c0 -23 -34 -33 -45 -14
-13 20 1 40 24 37 13 -2 21 -10 21 -23z m-121 -26 c3 -17 6 -72 6 -121 l0 -90
-30 4 c-17 3 -33 1 -36 -4 -7 -11 -49 -10 -77 3 -51 23 -63 104 -21 146 21 21
32 25 67 21 l42 -5 -3 38 c-4 36 -2 39 21 39 19 0 26 -6 31 -31z m-636 -7 c10
-7 10 -23 0 -88 -13 -74 -15 -79 -38 -79 -16 0 -24 5 -23 15 1 8 7 48 13 88
11 70 20 81 48 64z m766 -29 c3 -10 8 -51 12 -90 l7 -73 -26 0 c-24 0 -26 4
-32 68 -4 37 -9 75 -11 84 -4 14 5 21 38 27 4 0 9 -7 12 -16z m-536 -10 c18
-11 27 -12 37 -3 23 19 76 8 98 -21 16 -23 18 -36 12 -88 -6 -57 -9 -61 -32
-61 -25 0 -26 1 -20 54 6 64 -8 92 -40 82 -23 -7 -33 -33 -33 -88 0 -34 -3
-38 -25 -38 -24 0 -25 2 -25 65 0 36 -2 65 -4 65 -2 0 -11 3 -19 6 -26 10 -47
-24 -47 -77 0 -47 -1 -49 -28 -49 l-27 0 7 83 c3 45 7 83 7 84 5 9 121 -2 139
-14z"/>
<path d="M450 2545 c-14 -17 -5 -51 17 -59 33 -13 57 36 31 62 -16 16 -33 15
-48 -3z"/>
<path d="M512 2321 c-18 -11 -11 -51 10 -65 14 -8 22 -7 35 6 14 14 15 22 5
43 -12 26 -27 31 -50 16z"/>
<path d="M5557 2294 c-4 -4 -7 -20 -7 -36 0 -23 4 -29 18 -26 11 2 17 13 17
32 0 29 -14 43 -28 30z"/>
<path d="M689 1746 c-31 -15 -35 -47 -10 -70 36 -33 95 10 72 53 -14 26 -34
31 -62 17z"/>
<path d="M5302 1695 c-10 -21 -9 -27 3 -31 21 -8 35 4 35 32 0 32 -24 31 -38
-1z"/>
<path d="M840 1535 c0 -11 44 -65 52 -65 12 0 9 45 -4 58 -12 12 -48 17 -48 7z"/>
<path d="M4882 1248 c-14 -14 -16 -48 -4 -48 10 0 52 43 52 53 0 12 -35 8 -48
-5z"/>
<path d="M1306 1099 c-15 -22 -15 -24 12 -46 32 -27 50 -29 59 -7 4 10 -5 27
-24 46 l-30 30 -17 -23z"/>
<path d="M1247 1026 c-16 -25 -16 -26 18 -52 63 -47 89 -11 31 45 l-33 32 -16
-25z"/>
<path d="M1486 892 c-2 -4 11 -17 30 -30 31 -20 34 -21 34 -4 0 32 -49 58 -64
34z"/>
<path d="M3986 624 c-21 -20 -20 -37 3 -58 25 -23 71 -6 71 27 0 44 -43 62
-74 31z"/>
<path d="M3086 424 c-9 -8 -16 -24 -16 -34 0 -22 25 -50 45 -50 20 0 45 28 45
50 0 22 -25 50 -45 50 -7 0 -21 -7 -29 -16z"/>
</g>
</svg>
